<svg width="144" height="41" viewBox="0 0 144 41" fill="none" xmlns="http://www.w3.org/2000/svg">
<g clip-path="url(#clip0_756_362)">
<path d="M52.716 13.3735C52.566 13.508 52.3788 13.6545 52.137 13.8281C50.1461 15.2609 47.6195 16.1522 44.9438 17.0963C40.3596 18.7137 35.6193 20.3857 32.6056 24.9869C31.8307 26.1702 31.5343 27.3697 31.7423 28.3938C32.0457 27.8898 32.3352 27.4344 32.7009 26.9415L33.052 26.4682L33.3917 26.9491C34.5827 28.6373 36.4176 29.6052 38.4258 29.6052C39.5301 29.6052 40.6569 29.3098 41.6831 28.7505C43.2233 27.9111 44.2547 26.624 44.5884 25.1265C44.9152 23.658 44.5399 22.1053 43.5301 20.756L43.2086 20.3269L46.5898 18.9614L46.79 19.1862C48.6067 21.2318 49.1918 23.7849 48.4819 26.5712C47.7417 29.4758 45.3347 31.9463 42.2014 33.0189C41.027 33.4207 39.8326 33.6242 38.6503 33.6242C37.0416 33.6242 35.4676 33.2556 33.9525 32.526C34.6251 33.2581 35.4884 33.8285 36.2954 34.3265C37.6406 35.1565 39.2258 35.5949 40.8796 35.5949C42.5334 35.5949 44.084 35.1922 45.5375 34.4312C46.5473 33.9025 47.4366 33.2326 48.2574 32.3813C49.8106 30.7706 50.8854 28.6969 51.3673 26.3839C51.7556 24.5187 51.669 23.3822 51.6672 23.3677C51.5346 21.6558 51.2174 20.1439 50.6687 18.6099C50.1998 17.2963 50.4096 16.2722 51.35 15.289C51.9931 14.6156 52.4473 13.9797 52.7143 13.3744L52.716 13.3735ZM43.2623 23.4444L43.8378 23.5074C43.9748 23.5423 43.9505 23.6878 43.817 23.6827C42.8445 23.6487 42.503 23.4673 42.1529 23.9986C42.0099 24.2148 41.9665 24.5766 42.1763 24.8975L43.0812 25.8518C43.0864 26.1345 41.8634 24.8235 41.0209 25.4526C40.3128 25.9812 41.2592 27.637 40.9758 27.6055L40.2287 26.4188C40.0978 26.2298 39.6116 26.1311 39.277 26.2468C38.5203 26.5099 38.6893 27.9682 38.5394 27.9375C38.3643 27.9128 38.5506 26.5482 38.0341 26.1881C37.8442 26.0561 37.5348 26.1149 37.3736 26.28L36.3266 27.351C36.0336 27.3935 37.2913 26.0893 36.3656 25.4049C35.3159 24.6285 34.385 25.8416 34.327 25.5871L35.4919 24.6115C36.7634 23.5465 37.5608 26.6963 40.5173 24.9469C42.6244 23.6998 41.2662 20.9458 41.768 21.3357C41.807 21.3655 41.9145 21.6175 41.9267 21.7426C41.9423 21.9027 41.9657 22.0942 41.9865 22.2193C42.0775 22.7565 42.3453 23.3158 43.2623 23.4427V23.4444Z" fill="#FFF9EB"/>
<path d="M14.4645 18.4837L8.05742 16.0677C6.28751 15.4003 4.70135 14.7721 3.21401 13.8382C2.93318 13.662 2.72082 13.4279 2.54834 13.1733C2.87251 14.0459 3.48703 14.7491 3.83373 15.099C4.88511 16.1588 5.13386 17.2025 4.66322 18.5884C4.08163 20.3046 3.76786 21.8174 3.67772 23.3531C3.67512 23.3931 3.41423 27.3942 5.07839 29.6408L5.1746 29.7753L5.17113 29.8068C6.36812 31.9708 7.99588 33.538 10.142 34.5945C11.4664 35.2466 12.9381 35.5914 14.3977 35.5914C16.536 35.5914 18.6093 34.8575 20.2344 33.5253L20.315 33.4597C20.6877 33.1541 21.0509 32.857 21.3725 32.5301C19.8513 33.2571 18.2851 33.6249 16.6981 33.6249C15.4881 33.6249 14.2573 33.4086 13.0395 32.9813C10.0822 31.9436 7.74799 29.6059 6.94711 26.8784C6.10723 24.0189 6.67668 21.2887 8.54887 19.1929L8.75082 18.9664L12.1303 20.3719L11.8053 20.7975C10.8388 22.0643 10.4505 23.5353 10.7106 24.9391C10.9775 26.3829 11.8997 27.6632 13.3065 28.5435C14.4237 29.2424 15.6684 29.6127 16.9078 29.6127C18.9178 29.6127 20.7588 28.6354 21.9575 26.9311L22.3259 26.4067L23.5862 28.4098C23.7249 27.6454 23.6122 26.8239 23.2464 25.9555C21.8232 22.5802 17.1635 19.501 14.4627 18.4829L14.4645 18.4837ZM19.3235 25.9334C18.3978 26.6179 19.6554 27.922 19.3625 27.8795L18.3154 26.8085C18.1542 26.6434 17.8448 26.5838 17.655 26.7166C17.1384 27.0767 17.3239 28.4413 17.1497 28.466C16.9997 28.4967 17.1687 27.0384 16.4121 26.7753C16.0766 26.6587 15.5912 26.7583 15.4604 26.9465L14.7132 28.1332C14.4298 28.1638 15.3763 26.5089 14.6681 25.9802C13.8257 25.3511 12.6027 26.6621 12.6079 26.3795L13.5128 25.4252C13.7234 25.1034 13.6792 24.7425 13.5362 24.5262C13.186 23.995 12.8445 24.1763 11.872 24.2104C11.7385 24.2146 11.7143 24.0699 11.8512 24.035L12.4267 23.972C13.3437 23.8452 13.6124 23.2859 13.7026 22.7487C13.7234 22.6236 13.7468 22.4329 13.7624 22.272C13.7745 22.1469 13.882 21.8957 13.921 21.8651C14.4237 21.4743 13.0655 24.2291 15.1717 25.4763C18.1274 27.2257 18.9256 24.0767 20.1963 25.1409L21.3612 26.1164C21.3031 26.3701 20.3722 25.157 19.3226 25.9343L19.3235 25.9334Z" fill="#FFF9EB"/>
<path d="M30.4724 34.1962C31.5203 34.3971 32.3359 35.4374 32.2665 36.5032C32.1963 37.5928 31.2862 38.7046 29.8856 38.6791C29.7894 38.6774 29.694 38.6731 29.5995 38.6663C29.0916 38.6297 28.6894 38.5156 28.3965 38.3249C28.8931 38.7898 29.5033 39.0664 30.1465 39.1124C30.598 39.1447 31.047 39.0656 31.4804 38.8757C32.5985 38.3862 33.1896 37.2634 32.9183 36.1448C32.6713 35.1249 31.6953 34.352 30.4715 34.1953L30.4724 34.1962Z" fill="#FFF9EB"/>
<path d="M30.7501 34.0223C31.4253 32.9769 30.4094 31.7332 29.3069 30.5363C28.9611 30.1608 28.6621 29.8365 28.4696 29.5479L28.3665 29.3913L28.4159 29.2108C30.0783 23.1845 34.4355 18.3695 40.6839 15.6539C42.0915 15.0427 43.4801 14.5821 44.8235 14.136C47.1204 13.3741 49.2908 12.6548 51.3588 11.2697C54.7227 9.01721 55.9778 5.33365 54.8891 1.05078C52.6304 5.57201 48.8539 7.03539 44.528 8.71074C41.7717 9.77827 38.6471 10.9888 35.5103 13.1783C32.0658 15.5833 29.7238 18.8029 28.7383 22.4898L27.9747 25.3485L27.1444 25.294C26.1944 17.726 21.7168 12.9357 12.1729 9.2777L11.3677 8.97039C6.72973 7.2048 2.68026 5.66225 0.380769 1.14272C-0.791081 5.67417 0.763873 9.52884 4.74227 11.8299C6.51911 12.8574 8.34883 13.4533 10.2869 14.085C13.0102 14.9729 15.8254 15.8906 18.9354 18.0946C23.7146 21.4819 25.4195 24.6368 26.893 29.2746L26.965 29.4994L25.1413 31.5101C24.2659 32.4755 24.1081 33.6869 24.7088 34.8353C25.6076 36.5549 26.5922 38.1537 27.6324 39.8222L30.7501 34.0206V34.0223Z" fill="#FFF9EB"/>
</g>
<path d="M58.1086 0.000207055H66.0775L72.2563 24.1958H72.3718V0.000207055H78.0309V40.4224H71.5056L63.8832 10.9142H63.7677V40.4224H58.1086V0.000207055ZM85.9281 0.000207055H94.5323L101.115 40.4224H94.7632L93.6083 32.3957V32.5112H86.3901L85.2352 40.4224H79.3451L85.9281 0.000207055ZM92.8576 27.0253L90.0281 7.04521H89.9126L87.1408 27.0253H92.8576ZM101.42 34.7633L113.2 5.7748H101.997V0.000207055H120.014V5.65931L108.234 34.6478H120.014V40.4224H101.42V34.7633ZM121.879 0.000207055H131.292C134.564 0.000207055 136.951 0.770153 138.453 2.31005C139.954 3.81144 140.705 6.14052 140.705 9.2973V11.7804C140.705 15.9766 139.319 18.6329 136.547 19.7493V19.8648C138.087 20.3268 139.165 21.27 139.781 22.6944C140.435 24.1188 140.762 26.0244 140.762 28.4112V35.514C140.762 36.6689 140.801 37.6121 140.878 38.3435C140.955 39.0365 141.147 39.7294 141.455 40.4224H134.988C134.757 39.7679 134.603 39.152 134.526 38.5745C134.449 37.997 134.41 36.9576 134.41 35.4562V28.0647C134.41 26.2169 134.102 24.9272 133.486 24.1958C132.909 23.4643 131.889 23.0986 130.426 23.0986H128.232V40.4224H121.879V0.000207055ZM130.541 17.324C131.812 17.324 132.755 16.9968 133.371 16.3423C134.025 15.6879 134.353 14.5907 134.353 13.0508V9.93251C134.353 8.46961 134.083 7.41094 133.544 6.75648C133.044 6.10203 132.235 5.7748 131.119 5.7748H128.232V17.324H130.541Z" fill="#FFF9EB"/>
<defs>
<clipPath id="clip0_756_362">
<rect width="55.2711" height="38.7723" fill="white" transform="translate(0 1.05176)"/>
</clipPath>
</defs>
</svg>
