<svg width="1063" height="93" viewBox="0 0 1063 93" fill="none" xmlns="http://www.w3.org/2000/svg">
<path d="M1.15997 92.45L1.10999 68.63H70.08C73.63 68.61 76.19 66.34 76.19 62.37C76.19 58.4 73.65 55.99 70.1 55.97H29.52C12.34 56.02 0 44.64 0 28.19C0 11.74 12.32 0.23999 29.5 0.23999H99.56L99.61 23.89H30.64C27.09 23.91 24.67 26.04 24.67 30C24.67 33.96 27.06 36.23 30.61 36.26H71.17C88.47 36.24 100.81 47.71 100.81 64.16C100.81 80.61 88.49 92.4 71.17 92.38H1.14001L1.15997 92.45Z" fill="#747171"/>
<path d="M222.96 92.4099L209.34 33.13L193.35 83.62C191.63 89.56 187.55 92.4099 181.73 92.4099H174.22C168.25 92.4099 164.29 89.56 162.58 83.62L146.54 32.1399L132.94 92.4099L108.4 92.4599L127.1 10.74C128.65 3.07996 132.9 0.25995 139.15 0.22995H149.51C155.33 0.20995 159.44 3.07995 161.3 9.13995L178.04 64.31L194.61 9.13995C196.47 3.04995 200.41 0.229951 206.23 0.199951H216.59C222.82 0.199951 227.07 3.04996 228.79 10.68L247.68 92.38H222.97V92.3999L222.96 92.4099Z" fill="#747171"/>
<path d="M333 92.38L314.54 68.97L292.7 69.02V47.42H324.44C331.25 47.42 336.08 42.73 336.06 35.63C336.04 28.53 331.23 23.84 324.42 23.87H285.55V92.4H260.86V0.219971H324.39C345.53 0.219971 360.84 14.11 360.84 34.67C360.84 48.71 353.47 59.79 341.97 65.3L365.23 92.38H332.88H332.98H333Z" fill="#747171"/>
<path d="M377.81 92.3801V0.200043H402.62V92.3801H377.81ZM449.29 92.36L411.56 53.66C409.29 51.1 408.15 49.12 408.15 46.15V43.8801C408.15 41.1701 409.26 38.6401 411.41 36.3701L447.84 0.180054H479.61L435.23 44.73L481.9 92.3701H449.24H449.29V92.36Z" fill="#747171"/>
<path d="M531.13 92.33C502.91 92.33 482.36 73.75 482.33 46.24C482.33 18.73 502.89 0.150024 531.1 0.150024H544.43C572.5 0.150024 593.08 18.73 593.08 46.24C593.08 73.75 572.52 92.33 544.45 92.33H531.12H531.13ZM546.14 68.51C559.04 68.51 568.39 59.43 568.39 46.24C568.39 33.05 559.02 23.85 546.12 23.85H529.38C516.48 23.85 506.99 32.93 506.99 46.27C506.99 59.61 516.36 68.52 529.41 68.52H546.15L546.14 68.51Z" fill="#747171"/>
<path d="M695.35 92.2901C688.68 92.2901 686 89.9001 681.15 84.4901L633.61 33.1601V92.3001L609.5 92.3501V10.6301C609.48 3.67007 613.32 0.150087 620.97 0.120087H626.94C634.6 0.120087 637.71 2.25008 641.97 6.93008L685.5 53.8701V0.120087L709.44 0.0700684V82.7801C709.46 89.0101 706.32 92.2701 700.24 92.3001H695.29H695.36L695.35 92.2901Z" fill="#747171"/>
<path d="M774.64 92.29C746.42 92.29 725.87 73.71 725.84 46.2C725.84 18.69 746.4 0.109985 774.61 0.109985H787.94C816.01 0.109985 836.59 18.69 836.59 46.2C836.59 73.71 816.03 92.29 787.96 92.29H774.63H774.64ZM789.64 68.44C802.54 68.44 811.89 59.36 811.89 46.17C811.89 32.98 802.52 23.78 789.62 23.78H772.88C759.98 23.78 750.49 32.86 750.49 46.2C750.49 59.54 759.86 68.45 772.91 68.45H789.65L789.64 68.44Z" fill="#747171"/>
<path d="M895.04 92.2401C890.21 92.2401 886.39 89.99 884 85.45L836.89 0.0800781H864.84L897.89 62.4801L930.94 0.0800781H958.89L911.69 85.45C909.27 89.99 905.58 92.2401 900.77 92.2601H895.04V92.2401Z" fill="#747171"/>
<path d="M1035.58 92.21L1027.92 78.03H984.65L995.16 58.32L1017.43 58.27L1001.68 28.65L967.93 92.18H940.56L987.62 6.81C990.18 2.27 993.88 0.02 998.68 0H1004.36C1009.19 0 1012.86 2.27 1015.4 6.81L1062.51 92.18H1035.58V92.2V92.21Z" fill="#747171"/>
</svg>
