<svg width="1406" height="175" viewBox="0 0 1406 175" fill="none" xmlns="http://www.w3.org/2000/svg">
<path d="M60.5333 62.86C60.5333 62.86 60.4633 62.95 60.4433 62.99L1.3133 160.47C-2.3667 166.68 2.12328 174.56 9.36328 174.56H40.8933C41.1133 174.56 41.3533 174.54 41.5733 174.52L84.4633 102.92L60.5633 62.84H60.5433V62.86H60.5333Z" fill="#212120"/>
<path d="M134.053 56.58C130.373 50.37 134.863 42.49 142.073 42.49H157.513C160.673 42.49 163.623 40.9 165.343 38.24L180.843 14.43C184.873 8.22002 180.433 0 173.013 0H101.413C98.1633 0 95.1533 1.68001 93.4733 4.45001L74.0934 35.91C72.2834 38.85 72.2433 42.56 74.0033 45.55L115.213 115.54C118.873 121.75 114.383 129.6 107.163 129.6H97.2033C93.3033 129.6 89.6833 131.69 87.7433 135.07L64.9333 174.58H144.823C148.093 174.58 151.103 172.88 152.803 170.09L174.453 134.38C176.243 131.44 176.263 127.75 174.493 124.79L134.073 56.59H134.053V56.58Z" fill="#212120"/>
<path d="M292.653 160.43L208.683 20.73C206.543 17.15 201.403 17.05 199.113 20.53L169.223 65.97C166.713 69.76 166.603 74.6701 168.943 78.5701L189.063 109.79C188.933 109.79 189.193 109.79 189.063 109.79L191.813 105.39C195.323 99.09 204.353 98.98 208.013 105.19L244.603 169.97C246.283 172.83 249.333 174.57 252.653 174.57H284.663C291.923 174.57 296.393 166.66 292.663 160.42L292.653 160.43Z" fill="#212120"/>
<path d="M344.433 133.51L344.383 109.69H413.353C416.903 109.67 419.463 107.4 419.463 103.43C419.463 99.4601 416.923 97.05 413.373 97.03H372.793C355.613 97.08 343.273 85.7001 343.273 69.2501C343.273 52.8001 355.593 41.3 372.773 41.3H442.833L442.883 64.95H373.913C370.363 64.97 367.943 67.1001 367.943 71.0601C367.943 75.0201 370.333 77.2901 373.883 77.3201H414.443C431.743 77.3001 444.083 88.77 444.083 105.22C444.083 121.67 431.763 133.46 414.443 133.44H344.413L344.433 133.51Z" fill="#212120"/>
<path d="M566.233 133.47L552.613 74.19L536.623 124.68C534.903 130.62 530.823 133.47 525.003 133.47H517.493C511.523 133.47 507.563 130.62 505.853 124.68L489.813 73.2L476.213 133.47L451.673 133.52L470.373 51.8C471.923 44.14 476.173 41.32 482.423 41.29H492.783C498.603 41.27 502.713 44.14 504.573 50.2L521.313 105.37L537.883 50.2C539.743 44.11 543.683 41.29 549.503 41.26H559.863C566.093 41.26 570.343 44.11 572.063 51.74L590.953 133.44H566.243V133.46L566.233 133.47Z" fill="#212120"/>
<path d="M676.273 133.44L657.813 110.03L635.973 110.08V88.48H667.713C674.523 88.48 679.353 83.7901 679.333 76.6901C679.313 69.5901 674.503 64.9001 667.693 64.9301H628.823V133.46H604.133V41.28H667.663C688.803 41.28 704.113 55.17 704.113 75.73C704.113 89.77 696.743 100.85 685.243 106.36L708.503 133.44H676.153H676.253H676.273Z" fill="#212120"/>
<path d="M721.083 133.44V41.2601H745.893V133.44H721.083ZM792.563 133.42L754.833 94.7201C752.563 92.1601 751.423 90.1801 751.423 87.2101V84.9401C751.423 82.2301 752.533 79.7001 754.683 77.4301L791.113 41.2401H822.883L778.503 85.7901L825.173 133.43H792.513H792.563V133.42Z" fill="#212120"/>
<path d="M874.403 133.39C846.183 133.39 825.633 114.81 825.603 87.3001C825.603 59.7901 846.163 41.2101 874.373 41.2101H887.703C915.773 41.2101 936.353 59.7901 936.353 87.3001C936.353 114.81 915.793 133.39 887.723 133.39H874.393H874.403ZM889.413 109.57C902.313 109.57 911.663 100.49 911.663 87.3001C911.663 74.1101 902.293 64.9101 889.393 64.9101H872.653C859.753 64.9101 850.263 73.99 850.263 87.33C850.263 100.67 859.633 109.58 872.683 109.58H889.423L889.413 109.57Z" fill="#212120"/>
<path d="M1038.62 133.35C1031.95 133.35 1029.27 130.96 1024.42 125.55L976.883 74.2201V133.36L952.773 133.41V51.6901C952.753 44.7301 956.593 41.2101 964.243 41.1801H970.213C977.873 41.1801 980.983 43.3101 985.243 47.9901L1028.77 94.9301V41.1801L1052.71 41.1301V123.84C1052.73 130.07 1049.59 133.33 1043.51 133.36H1038.56H1038.63L1038.62 133.35Z" fill="#212120"/>
<path d="M1117.91 133.35C1089.69 133.35 1069.14 114.77 1069.11 87.26C1069.11 59.75 1089.67 41.17 1117.88 41.17H1131.21C1159.28 41.17 1179.86 59.75 1179.86 87.26C1179.86 114.77 1159.3 133.35 1131.23 133.35H1117.9H1117.91ZM1132.91 109.5C1145.81 109.5 1155.16 100.42 1155.16 87.23C1155.16 74.04 1145.79 64.84 1132.89 64.84H1116.15C1103.25 64.84 1093.76 73.92 1093.76 87.26C1093.76 100.6 1103.13 109.51 1116.18 109.51H1132.92L1132.91 109.5Z" fill="#212120"/>
<path d="M1238.31 133.3C1233.48 133.3 1229.66 131.05 1227.27 126.51L1180.16 41.1401H1208.11L1241.16 103.54L1274.21 41.1401H1302.16L1254.96 126.51C1252.54 131.05 1248.85 133.3 1244.04 133.32H1238.31V133.3Z" fill="#212120"/>
<path d="M1378.85 133.27L1371.19 119.09H1327.92L1338.43 99.3801L1360.7 99.33L1344.95 69.7101L1311.2 133.24H1283.83L1330.89 47.8701C1333.45 43.3301 1337.15 41.0801 1341.95 41.0601H1347.63C1352.46 41.0601 1356.13 43.3301 1358.67 47.8701L1405.78 133.24H1378.85V133.26V133.27Z" fill="#212120"/>
</svg>
