<svg width="176" height="106" viewBox="0 0 176 106" fill="none" xmlns="http://www.w3.org/2000/svg">
<path d="M36.2487 38.1664C36.2487 38.1664 36.2095 38.2193 36.1965 38.2458L0.787645 97.448C-1.41807 101.221 1.27055 106 5.60366 106H24.4762C24.6067 106 24.7503 105.987 24.8808 105.974L50.5532 62.4986L36.2487 38.1664Z" fill="#303030"/>
<path d="M80.2585 34.3537C78.0528 30.5807 80.7414 25.8017 85.0615 25.8017H94.302C96.1944 25.8017 97.9564 24.8353 98.9875 23.2202L108.267 8.76383C110.682 4.99088 108.019 0 103.582 0H60.7204C58.7757 0 56.9746 1.01936 55.9696 2.70064L44.3668 21.8037C43.2835 23.5909 43.2574 25.8414 44.3146 27.6551L68.982 70.1504C71.1746 73.9233 68.486 78.6891 64.166 78.6891H58.2014C55.8652 78.6891 53.6986 79.96 52.537 82.012L38.8851 106H86.706C88.6637 106 90.4648 104.967 91.4828 103.273L104.443 81.5884C105.513 79.8012 105.526 77.5639 104.469 75.7635L80.2716 34.3537H80.2585Z" fill="#303030"/>
<path d="M175.195 97.4082L124.934 12.5897C123.655 10.4186 120.575 10.3524 119.204 12.4705L101.311 40.0594C99.8097 42.3629 99.7444 45.3415 101.141 47.7112L113.188 66.6686C113.109 66.6686 113.266 66.6686 113.188 66.6686L114.832 63.9945C116.933 60.1686 122.337 60.1024 124.529 63.8753L146.43 103.207C147.435 104.941 149.262 106 151.246 106H170.405C174.752 106 177.427 101.194 175.195 97.4082Z" fill="#303030"/>
</svg>
