<svg width="161" height="20" viewBox="0 0 161 20" fill="none" xmlns="http://www.w3.org/2000/svg">
<path d="M6.88963 7.15444C6.88963 7.15444 6.88166 7.16468 6.87938 7.16924L0.149474 18.264C-0.269368 18.9707 0.241663 19.8676 1.06569 19.8676H4.65429C4.67933 19.8676 4.70665 19.8653 4.73169 19.8631L9.61324 11.7139L6.89304 7.15216H6.89077V7.15444H6.88963Z" fill="white"/>
<path d="M15.2576 6.43968C14.8387 5.73288 15.3497 4.83602 16.1704 4.83602H17.9277C18.2873 4.83602 18.6231 4.65505 18.8188 4.3523L20.583 1.64236C21.0417 0.935565 20.5363 0 19.6918 0H11.5426C11.1727 0 10.8301 0.191211 10.6389 0.50648L8.43318 4.08711C8.22717 4.42173 8.22261 4.84399 8.42293 5.18429L13.1133 13.1502C13.5298 13.857 13.0188 14.7505 12.1971 14.7505H11.0635C10.6196 14.7505 10.2076 14.9884 9.98676 15.3731L7.39062 19.8699H16.4833C16.8555 19.8699 17.1981 19.6764 17.3916 19.3589L19.8557 15.2945C20.0594 14.9599 20.0617 14.5399 19.8603 14.203L15.2598 6.44081H15.2576V6.43968Z" fill="white"/>
<path d="M33.3086 18.2595L23.7515 2.3594C23.508 1.95194 22.923 1.94056 22.6623 2.33664L19.2604 7.50843C18.9747 7.93979 18.9622 8.49863 19.2285 8.94251L21.5185 12.4958C21.5037 12.4958 21.5333 12.4958 21.5185 12.4958L21.8315 11.995C22.231 11.278 23.2587 11.2655 23.6753 11.9723L27.8398 19.3453C28.031 19.6708 28.3781 19.8688 28.756 19.8688H32.3993C33.2256 19.8688 33.7343 18.9685 33.3098 18.2583L33.3086 18.2595Z" fill="white"/>
<path d="M39.5949 15.1938L39.5892 12.4828H47.4391C47.8431 12.4805 48.1345 12.2221 48.1345 11.7703C48.1345 11.3184 47.8454 11.0441 47.4414 11.0419H42.8227C40.8674 11.0475 39.4629 9.75233 39.4629 7.88007C39.4629 6.00781 40.8651 4.69893 42.8204 4.69893H50.7944L50.8001 7.39066H42.9502C42.5462 7.39293 42.2707 7.63536 42.2707 8.08607C42.2707 8.53678 42.5427 8.79514 42.9468 8.79856H47.5631C49.5322 8.79628 50.9366 10.1017 50.9366 11.974C50.9366 13.8463 49.5344 15.1881 47.5631 15.1859H39.5926L39.5949 15.1938Z" fill="white"/>
<path d="M64.8395 15.1895L63.2893 8.44254L61.4694 14.1891C61.2736 14.8651 60.8093 15.1895 60.1469 15.1895H59.2921C58.6126 15.1895 58.1619 14.8651 57.9673 14.1891L56.1417 8.32985L54.5938 15.1895L51.8008 15.1952L53.9291 5.89421C54.1055 5.02238 54.5893 4.70142 55.3006 4.69801H56.4797C57.1421 4.69573 57.6099 5.02238 57.8216 5.71211L59.7269 11.9913L61.6128 5.71211C61.8245 5.01897 62.2729 4.69801 62.9354 4.6946H64.1145C64.8236 4.6946 65.3073 5.01897 65.503 5.88738L67.653 15.1861H64.8406V15.1884L64.8395 15.1895Z" fill="white"/>
<path d="M77.363 15.1859L75.262 12.5215L72.7762 12.5272V10.0688H76.3887C77.1638 10.0688 77.7136 9.53501 77.7113 8.72692C77.709 7.91883 77.1615 7.38504 76.3865 7.38845H71.9625V15.1882H69.1523V4.69672H76.383C78.7891 4.69672 80.5316 6.27761 80.5316 8.61766C80.5316 10.2156 79.6928 11.4767 78.3839 12.1038L81.0313 15.1859H77.3493H77.3607H77.363Z" fill="white"/>
<path d="M82.4639 15.1862V4.69473H85.2876V15.1862H82.4639ZM90.5994 15.184L86.3051 10.7793C86.0468 10.4879 85.917 10.2626 85.917 9.92455V9.6662C85.917 9.35776 86.0434 9.0698 86.2881 8.81144L90.4344 4.69246H94.0503L88.9992 9.76294L94.3109 15.1851H90.5937H90.5994V15.184Z" fill="white"/>
<path d="M99.9136 15.1807C96.7017 15.1807 94.3628 13.0661 94.3594 9.935C94.3594 6.80394 96.6994 4.68925 99.9102 4.68925H101.427C104.622 4.68925 106.964 6.80394 106.964 9.935C106.964 13.0661 104.624 15.1807 101.43 15.1807H99.9124H99.9136ZM101.622 12.4697C103.09 12.4697 104.154 11.4362 104.154 9.935C104.154 8.43378 103.088 7.38668 101.62 7.38668H99.7144C98.2462 7.38668 97.1661 8.42012 97.1661 9.93841C97.1661 11.4567 98.2325 12.4708 99.7178 12.4708H101.623L101.622 12.4697Z" fill="white"/>
<path d="M118.604 15.1768C117.845 15.1768 117.54 14.9048 116.988 14.289L111.577 8.44688V15.1779L108.833 15.1836V5.88262C108.831 5.09046 109.268 4.68983 110.138 4.68642H110.818C111.69 4.68642 112.044 4.92884 112.529 5.4615L117.483 10.804V4.68642L120.208 4.68073V14.0944C120.21 14.8035 119.853 15.1745 119.161 15.1779H118.597H118.605L118.604 15.1768Z" fill="white"/>
<path d="M127.629 15.1765C124.418 15.1765 122.079 13.0618 122.075 9.93074C122.075 6.79968 124.415 4.685 127.626 4.685H129.143C132.338 4.685 134.68 6.79968 134.68 9.93074C134.68 13.0618 132.34 15.1765 129.145 15.1765H127.628H127.629ZM129.337 12.462C130.805 12.462 131.869 11.4286 131.869 9.92733C131.869 8.42611 130.803 7.379 129.334 7.379H127.429C125.961 7.379 124.881 8.41245 124.881 9.93074C124.881 11.449 125.947 12.4631 127.433 12.4631H129.338L129.337 12.462Z" fill="white"/>
<path d="M141.332 15.171C140.783 15.171 140.348 14.9149 140.076 14.3982L134.714 4.68179H137.895L141.657 11.7839L145.418 4.68179H148.599L143.227 14.3982C142.952 14.9149 142.532 15.171 141.984 15.1733H141.332V15.171Z" fill="white"/>
<path d="M157.328 15.1682L156.457 13.5543H151.532L152.728 11.311L155.263 11.3053L153.47 7.93407L149.629 15.1648H146.514L151.87 5.44835C152.161 4.93162 152.582 4.67554 153.129 4.67326H153.775C154.325 4.67326 154.743 4.93162 155.032 5.44835L160.393 15.1648H157.328V15.167V15.1682Z" fill="white"/>
</svg>
