<svg width="209" height="147" viewBox="0 0 209 147" fill="none" xmlns="http://www.w3.org/2000/svg">
<g clip-path="url(#clip0_151_593)">
<path d="M195.969 44.7842C195.432 45.2884 194.759 45.8402 193.889 46.4971C186.72 51.9163 177.509 55.4485 167.754 59.1898C151.041 65.5997 133.76 72.2256 123.206 89.207C120.492 93.5741 119.545 97.9397 120.438 101.61C121.495 99.7529 122.507 98.0731 123.796 96.2487L125.033 94.4967L126.345 96.19C130.945 102.133 137.832 105.397 145.24 105.146C149.313 105.008 153.433 103.801 157.151 101.655C162.73 98.433 166.377 93.6591 167.425 88.2135C168.451 82.8733 166.876 77.3166 162.987 72.5735L161.748 71.0653L174.054 65.7151L174.82 66.5012C181.771 73.6565 184.241 82.7966 181.964 92.9404C179.588 103.515 171.011 112.731 159.584 116.993C155.301 118.59 150.92 119.474 146.559 119.621C140.625 119.822 134.774 118.689 129.096 116.245C131.666 118.803 134.921 120.754 137.958 122.45C143.022 125.277 148.923 126.661 155.023 126.455C161.124 126.248 166.795 124.601 172.063 121.673C175.723 119.639 178.922 117.11 181.846 113.936C187.378 107.929 191.089 100.311 192.584 91.904C193.789 85.1244 193.33 81.034 193.322 80.982C192.623 74.8205 191.268 69.4041 189.057 63.9367C187.167 59.255 187.815 55.533 191.164 51.8672C193.454 49.3568 195.052 47.0052 195.963 44.7875L195.969 44.7842ZM162.327 82.3087L164.458 82.4641C164.967 82.573 164.896 83.1013 164.403 83.0996C160.811 83.0982 159.529 82.4865 158.303 84.4473C157.802 85.2455 157.686 86.5565 158.499 87.6885L161.953 91.0193C162.007 92.0386 157.336 87.4604 154.305 89.8359C151.757 91.8322 155.451 97.6892 154.402 97.611L151.501 93.4218C150.995 92.7561 149.189 92.4605 147.969 92.9201C145.21 93.964 146.012 99.2054 145.455 99.1135C144.806 99.0463 145.326 94.0984 143.377 92.8635C142.661 92.411 141.526 92.6616 140.952 93.2778L137.22 97.2733C136.145 97.4635 140.625 92.5999 137.126 90.2456C133.16 87.575 129.874 92.0691 129.629 91.1578L133.807 87.4915C138.367 83.4894 141.693 94.7566 152.385 88.074C160.005 83.3101 154.659 73.5415 156.558 74.8858C156.705 74.9884 157.132 75.8844 157.192 76.3344C157.269 76.9101 157.379 77.5984 157.471 78.0474C157.873 79.9745 158.929 81.9594 162.327 82.3026L162.327 82.3087Z" fill="#161616"/>
<path d="M55.484 68.0052L31.5545 60.0871C24.9441 57.8998 19.0163 55.8307 13.4157 52.6465C12.3582 52.0456 11.5463 51.2273 10.8789 50.3303C12.1814 53.4387 14.5342 55.8995 15.8558 57.1188C19.8637 60.8123 20.9089 64.5476 19.3422 69.6078C17.4066 75.8739 16.4341 81.3722 16.2894 86.9256C16.2847 87.0703 15.8114 101.542 22.2248 109.441L22.5961 109.915L22.5872 110.029C27.2671 117.689 33.4632 123.141 41.5087 126.685C46.4739 128.873 51.945 129.933 57.3292 129.751C65.2168 129.484 72.775 126.576 78.607 121.566L78.8963 121.319C80.2338 120.169 81.5371 119.052 82.6833 117.832C77.161 120.646 71.4285 122.169 65.5743 122.367C61.1109 122.518 56.5444 121.892 52 120.501C40.9641 117.126 32.0681 108.982 28.7804 99.2387C25.3327 89.0244 27.0995 79.101 33.7494 71.3035L34.4667 70.4611L47.1046 75.1109L45.9577 76.6875C42.5476 81.3796 41.295 86.7368 42.4258 91.7702C43.5871 96.9471 47.1455 101.452 52.4422 104.453C56.649 106.836 61.2855 108.017 65.8576 107.862C73.272 107.611 79.9436 103.854 84.157 97.5536L85.4518 95.6151L90.3454 102.686C90.7636 99.9102 90.2475 96.9597 88.7921 93.8719C83.1296 81.8688 65.5647 71.3391 55.4775 68.0024L55.484 68.0052ZM74.3186 94.2822C70.9876 96.8678 75.7862 101.417 74.7004 101.3L70.7071 97.5663C70.0923 96.9904 68.9436 96.8141 68.2596 97.317C66.398 98.6811 67.2491 103.583 66.6094 103.693C66.0601 103.823 66.5053 98.5391 63.6819 97.6843C62.4303 97.3054 60.652 97.7254 60.1922 98.4207L57.5812 102.797C56.5395 102.943 59.8286 96.8522 57.1518 95.0329C53.9672 92.8678 49.6161 97.7517 49.6007 96.7311L52.822 93.1742C53.5596 91.9866 53.3524 90.6896 52.7984 89.9271C51.4418 88.0539 50.2042 88.7509 46.6211 88.9953C46.1292 89.0274 46.022 88.5081 46.5229 88.3651L48.6382 88.0658C52.0054 87.4935 52.9282 85.4415 53.195 83.4917C53.2565 83.0376 53.3195 82.3465 53.3574 81.7639C53.3868 81.3108 53.7526 80.3911 53.8927 80.2756C55.6994 78.8027 51.026 88.9138 58.9478 93.1512C70.0643 99.0951 72.6241 87.6316 77.4413 91.313L81.8577 94.6881C81.6745 95.6108 78.0924 91.3494 74.3155 94.2854L74.3186 94.2822Z" fill="#161616"/>
<path d="M116.462 122.708C120.352 123.302 123.488 126.954 123.363 130.809C123.237 134.75 120.016 138.876 114.846 138.959C114.491 138.965 114.138 138.961 113.789 138.949C111.911 138.88 110.413 138.519 109.31 137.867C111.198 139.482 113.483 140.404 115.861 140.49C117.531 140.55 119.177 140.209 120.753 139.469C124.817 137.563 126.861 133.437 125.723 129.434C124.687 125.785 120.993 123.117 116.459 122.705L116.462 122.708Z" fill="#161616"/>
<path d="M117.461 122.045C119.824 118.188 115.925 113.826 111.711 109.645C110.39 108.333 109.247 107.2 108.502 106.183L108.102 105.63L108.262 104.973C113.658 83.0176 129.142 65.0972 151.859 54.5164C156.977 52.1347 162.043 50.2992 166.944 48.5215C175.323 45.4849 183.241 42.6178 190.701 37.361C202.834 28.8119 207.013 15.362 202.474 0.0421821C194.695 16.6405 180.943 22.3933 165.19 28.9798C155.154 33.1767 143.775 37.9357 132.472 46.2291C120.06 55.3383 111.815 67.2497 108.63 80.6781L106.163 91.0898L103.093 90.9969C98.6639 63.8044 81.5613 47.0771 45.909 35.0688L42.9012 34.0604C25.5768 28.2683 10.4506 23.2076 1.41581 7.18509C-2.35294 23.6844 3.85416 37.4007 18.8109 45.2075C25.4909 48.6935 32.3132 50.6154 39.5395 52.6527C49.6938 55.5166 60.1907 58.4766 71.9319 66.0417C89.9757 77.6685 96.6504 88.8407 102.653 105.394L102.946 106.196L96.4643 113.68C93.3531 117.273 92.9192 121.664 95.2753 125.734C98.8011 131.827 102.629 137.473 106.669 143.365L117.461 122.039L117.461 122.045Z" fill="#161616"/>
</g>
<defs>
<clipPath id="clip0_151_593">
<rect width="204" height="140" fill="white" transform="translate(0 6.90649) rotate(-1.94012)"/>
</clipPath>
</defs>
</svg>
