<svg width="52" height="52" viewBox="0 0 52 52" fill="none" xmlns="http://www.w3.org/2000/svg">
<path d="M0 46.8884L5.23928 51.9688L10.3725 46.8884L10.4532 41.4925L5.21744 46.7282L0 41.4925V46.8884Z" fill="#FFCB05"/>
<path d="M31.1709 10.4785H10.3721V36.3574L5.24121 41.5596L0 36.3545V0H41.5957L31.1709 10.4785Z" fill="#FFCB05"/>
<path d="M41.5947 5.08041L46.722 0L51.9672 5.08041V10.3196L46.7301 5.22871L41.5947 10.3196V5.08041Z" fill="#FFCB05"/>
<path d="M51.9785 15.5586V41.5957H51.9775V51.9688H10.3818L20.8076 41.4902H41.6055V15.5586L46.7236 10.4355L51.9785 15.5586Z" fill="#FFCB05"/>
<path d="M15.5591 20.7451H36.3041V31.1176H28.5776L25.9845 28.5245L23.3385 31.1176H15.5591V20.7451Z" fill="#3D7DCA"/>
<rect x="11.96" y="23.8145" width="2.011" height="4.23366" fill="#3D7DCA"/>
<rect x="37.8916" y="23.8145" width="2.011" height="4.23366" fill="#3D7DCA"/>
</svg>
