<svg width="265" height="69" viewBox="0 0 265 69" fill="none" xmlns="http://www.w3.org/2000/svg">
<path fill-rule="evenodd" clip-rule="evenodd" d="M44.4785 19.4387H53.7162V12.7788H44.4785V19.4387ZM44.4785 47.7784H53.7162V22.258H44.4785V47.7784ZM82.8856 28.2376C82.8856 24.9808 80.1624 22.258 76.9051 22.258H57.7989V47.7784H67.0366V29.6465H73.6492V47.7784H82.887V28.2376H82.8856ZM100.972 29.1608V32.3693H95.8181V29.1608H100.972ZM86.5804 41.7988C86.5804 45.0556 89.3035 47.7784 92.5608 47.7784H107.292L110.208 40.3898H95.8167V37.5222H103.742C106.999 37.5222 109.722 34.7995 109.722 31.5427V28.2376C109.722 24.9808 106.999 22.258 103.742 22.258H92.5595C89.3022 22.258 86.579 24.9808 86.579 28.2376V41.8002L86.5804 41.7988ZM149.588 47.7784H158.826V29.6465H164.174L167.092 22.258H155.57C152.313 22.258 149.59 24.9808 149.59 28.2376V47.7784H149.588ZM181.773 47.7784H175.793C172.536 47.7784 169.812 45.0556 169.812 41.7988V29.6465H166.944L169.812 22.258V18.1263H179.05V22.258H184.543L181.626 29.6465H179.049V40.3898H184.688L181.772 47.7784H181.773ZM201.074 29.1608V32.3693H195.921V29.1608H201.074ZM186.684 41.7988C186.684 45.0556 189.407 47.7784 192.665 47.7784H207.396L210.312 40.3898H195.921V37.5222H203.846C207.103 37.5222 209.826 34.7995 209.826 31.5427V28.2376C209.826 24.9808 207.103 22.258 203.846 22.258H192.663C189.406 22.258 186.683 24.9808 186.683 28.2376V41.8002L186.684 41.7988ZM213.23 47.7784H222.467V29.6465H227.816L230.733 22.258H219.212C215.954 22.258 213.231 24.9808 213.231 28.2376V47.7784H213.23ZM256.79 22.258H247.553V39.9041H241.427V22.258H232.19V41.3131C232.19 44.5699 234.913 47.2926 238.17 47.2926H247.553V50.2085H234.231L231.508 57.1113H250.809C254.066 57.1113 256.789 54.3886 256.789 51.1318V22.258H256.79Z" fill="white"/>
<path fill-rule="evenodd" clip-rule="evenodd" d="M125.614 34.4104H133.352L129.844 19.7714H129.228L125.615 34.4104H125.614ZM112.105 47.7785L122.267 12.4395H136.843L146.769 47.7785H136.608L135.02 41.6044H123.879L122.267 47.7785H112.105Z" fill="white"/>
<path fill-rule="evenodd" clip-rule="evenodd" d="M8.19985 29.0961C8.19985 30.2815 8.14878 31.5442 8.273 32.713C8.29646 32.9325 8.36824 33.1781 8.36962 33.4279C8.37238 33.7522 8.44691 34.6575 8.52558 34.9307L8.64152 35.6621C8.66084 35.945 8.7754 36.3631 8.86235 36.6598C8.90928 36.8185 8.8941 36.8696 8.92308 37.0393L9.0887 37.6866C9.16048 38.0385 9.29159 38.3241 9.3537 38.6733L9.50139 39.1356C9.58558 39.3771 9.72084 39.6765 9.77053 39.9153C9.81607 40.1319 9.90855 40.3168 9.99274 40.5059L10.3461 41.4057C10.3806 41.4857 10.3861 41.476 10.4165 41.5381C10.4441 41.5933 10.4524 41.6306 10.4717 41.6858L10.618 41.9797C10.7726 42.2889 10.9078 42.6408 11.1024 42.9181C11.1604 42.9996 11.1425 42.9858 11.1866 43.0713L11.3384 43.3252C11.3826 43.4011 11.3826 43.3887 11.4199 43.4481L11.649 43.8289C11.7125 43.92 11.7677 43.9876 11.8298 44.0884L12.8015 45.4187C12.8015 45.4187 12.8139 45.4311 12.818 45.4366L13.2832 45.9528C13.5551 46.2812 13.9346 46.5751 14.2921 46.8056C14.7158 47.0775 14.7489 47.163 15.2941 47.4625C15.5702 47.6129 16.0201 47.8461 16.3058 47.9068C16.4507 47.9386 16.5101 47.922 16.6495 47.9703C17.559 48.2822 18.1981 48.238 19.1311 48.0862L20.307 47.704C20.3788 47.664 20.394 47.6612 20.4658 47.6253C20.5458 47.5853 20.532 47.5825 20.5941 47.5508C20.6604 47.5163 20.7045 47.5108 20.7653 47.4859L21.3753 47.1147C21.3753 47.1147 21.3891 47.1051 21.3946 47.1009C21.4236 47.0802 21.4236 47.0816 21.4554 47.0595C21.9081 46.7435 22.3704 46.4233 22.7541 46.0218C22.7721 46.0024 22.7942 45.9748 22.8176 45.95C23.0909 45.6533 23.0951 45.674 22.8466 45.2931L22.6065 44.9578C22.5526 44.8764 22.5526 44.8888 22.4988 44.7949C22.4657 44.7384 22.485 44.7632 22.4491 44.7094L22.1689 44.2112C22.1275 44.145 22.1082 44.1325 22.0585 44.0511C22.0102 43.9738 21.9826 43.9324 21.9467 43.8579L21.7521 43.477C21.7107 43.3901 21.7038 43.3984 21.6569 43.3018L20.982 41.9107C20.8357 41.6209 20.5541 40.8081 20.4754 40.6563C20.3526 40.4176 20.2725 40.0629 20.1801 39.8007L19.846 38.6788C19.7688 38.4069 19.7066 38.2786 19.6708 37.9736L19.2857 36.3273C19.2043 36.0402 19.2346 35.7835 19.1932 35.5062L19.0179 34.5305C18.9185 33.9964 18.9682 33.4486 18.873 32.9145C18.7322 32.1224 18.7929 29.5404 18.7943 28.7248L18.8606 27.607C18.913 27.2413 18.9655 26.9198 18.9641 26.5265C18.9641 26.2878 18.9765 26.1387 18.9945 25.9469L19.3243 23.8728C19.3989 23.6506 19.4651 23.1441 19.5258 22.8557C19.5672 22.657 19.6225 22.6142 19.657 22.4113L19.7729 21.9173C19.806 21.8248 19.806 21.7779 19.8309 21.6703L20.1718 20.5207C20.3291 20.1537 20.3802 19.7604 20.5472 19.4057L21.7797 16.7451C21.8984 16.4704 22.1082 16.2469 22.2297 15.9764C22.3152 15.7873 22.4629 15.6079 22.5733 15.4396L22.8011 15.0587C22.9198 14.9014 23.0951 14.6516 23.0951 14.4391C23.0951 14.2266 22.2959 13.4979 22.0778 13.3572L21.5962 12.9928C21.5037 12.9211 21.4291 12.8976 21.3256 12.8231C21.269 12.7831 21.2552 12.7776 21.2028 12.7431C21.1476 12.7086 21.1434 12.6989 21.0841 12.6589C20.8771 12.5209 20.4685 12.2987 20.2366 12.2187L19.7977 12.0475C19.5534 11.9841 19.2181 11.7964 18.9655 11.7964H17.577L15.7979 12.2863L13.7704 13.6787C13.7276 13.7187 13.751 13.6994 13.7 13.7436C13.6185 13.8139 13.5454 13.8595 13.4778 13.9271L12.6786 14.8545C12.6786 14.8545 12.6662 14.8669 12.6621 14.8724L12.3294 15.285C12.1403 15.5845 11.9112 15.8232 11.7152 16.1268L11.1756 17.0431C11.0748 17.2377 10.9893 17.3854 10.8913 17.6048L10.5296 18.292C10.5007 18.3431 10.4869 18.3831 10.4689 18.4356C10.451 18.4921 10.4413 18.528 10.4137 18.5832L10.0866 19.3063C10.0383 19.4085 10.0369 19.512 9.9886 19.6141C9.86024 19.8846 9.76225 20.2613 9.65183 20.5304C9.60904 20.6339 9.6118 20.7346 9.56902 20.8547C9.49587 21.0603 9.40477 21.2383 9.36061 21.4591L9.22673 21.9684C9.21016 22.0153 9.19084 22.0995 9.18394 22.1284C9.15357 22.254 9.11631 22.3561 9.09147 22.4748C9.06386 22.6004 9.0611 22.708 9.03902 22.8295C9.01141 22.9827 8.96863 23.0158 8.93274 23.1634L8.64152 24.531C8.62772 24.669 8.63876 24.7753 8.61943 24.9147C8.5587 25.33 8.50902 25.3162 8.43173 25.98C8.40274 26.2298 8.36686 26.4382 8.36824 26.7294C8.36824 27.0067 8.29923 27.2179 8.26334 27.4704C8.21917 27.7823 8.19847 28.7235 8.19847 29.0974L8.19985 29.0961Z" fill="white"/>
<path fill-rule="evenodd" clip-rule="evenodd" d="M28.8899 24.2203C29.6338 24.3942 38.2753 24.3555 39.0151 24.3555C39.3105 24.3555 39.0317 23.6848 39.0206 23.5717L38.8426 22.5312C38.8205 22.4111 38.7749 22.32 38.7529 22.2138C38.728 22.0937 38.7253 21.9792 38.6935 21.866L38.2422 20.2859C38.1718 20.1382 38.1939 20.141 38.1469 19.974L37.3257 17.9509C37.2802 17.8419 37.2319 17.766 37.1932 17.6777C37.1711 17.628 37.1601 17.5811 37.1353 17.5328L36.7723 16.8801C36.5914 16.5337 36.3637 16.2094 36.1567 15.8699L35.8199 15.3938C35.5176 15.024 35.254 14.6113 34.9104 14.2719L34.0767 13.4466C34.0767 13.4466 34.0643 13.4342 34.0588 13.4301L33.8642 13.2865C33.4653 13.0147 33.0443 12.7207 32.6082 12.511C32.4274 12.424 32.2728 12.3067 32.0782 12.2281L31.152 11.9355C31.0403 11.9176 30.8636 11.9148 30.7766 11.9038C30.6372 11.8858 30.5268 11.8762 30.4109 11.8624C30.0644 11.8224 27.725 11.792 27.2309 11.792C26.6539 11.792 22.6417 11.7589 22.4264 11.8334C22.1835 11.9176 22.6734 12.2143 22.7507 12.2764L23.4933 12.8891C23.4933 12.8891 23.5057 12.9015 23.5112 12.9057L25.4766 15.173C25.7085 15.5001 25.9583 15.8575 26.1336 16.208L27.0128 17.9703C27.2005 18.3235 27.3454 18.8134 27.4766 19.0632L27.7126 19.7753C27.7374 19.8567 27.7747 19.9105 27.8037 19.9892C27.8382 20.0872 27.8395 20.1741 27.8713 20.2597C27.9141 20.377 27.9237 20.3259 27.9624 20.4736C27.9928 20.5881 27.9817 20.6074 28.0245 20.7165C28.0604 20.8103 28.0852 20.8489 28.1032 20.9414L28.2384 21.4147C28.2605 21.5279 28.255 21.5652 28.2881 21.67C28.313 21.7473 28.3433 21.7901 28.3682 21.8936C28.393 21.9957 28.3972 22.0909 28.4151 22.1862C28.4468 22.3614 28.52 22.4994 28.5421 22.6692C28.5724 22.8969 28.6276 22.9548 28.6649 23.1894C28.6732 23.2432 28.6842 23.3743 28.7022 23.4571L28.8913 24.2161L28.8899 24.2203Z" fill="white"/>
<path fill-rule="evenodd" clip-rule="evenodd" d="M22.1512 48.1576C22.1926 48.1811 22.1871 48.1907 22.2533 48.1907C23.2485 48.1907 30.4021 48.2432 30.7568 48.1618C30.8962 48.13 30.881 48.1148 31.0149 48.0803C31.342 47.9989 31.0811 48.0983 31.5214 47.9451L32.6767 47.4759C32.7595 47.4442 32.8119 47.4097 32.8961 47.3558L33.9534 46.6175C34.0086 46.5789 33.9975 46.583 34.0472 46.5416L34.914 45.7495L35.7656 44.7049C35.7987 44.6579 35.8042 44.6552 35.8387 44.6096L36.5054 43.5843C36.5426 43.5305 36.5109 43.5802 36.5495 43.5277L37.4301 41.8013C37.6068 41.3901 37.9228 40.6766 38.0277 40.2654C38.0595 40.144 38.0305 40.224 38.0719 40.1398L38.4515 38.9282C38.4873 38.7405 38.5522 38.6563 38.6033 38.4024C38.6295 38.2699 38.6461 38.2547 38.6847 38.1443C38.7123 38.0629 38.7261 37.9691 38.7385 37.8932L39.1498 36.0026C39.1498 35.7914 38.5646 35.866 38.2016 35.8673C37.9739 35.8673 37.8939 35.8342 37.6951 35.8315L31.6318 35.7983C31.4055 35.7983 31.1805 35.7983 30.9542 35.7983L29.6582 35.8577C29.4442 35.8867 29.1944 35.8453 28.9888 35.8646C28.7693 35.8853 28.8052 36.0826 28.7417 36.2951C28.6823 36.4952 28.6906 36.665 28.6382 36.8678C28.612 36.97 28.5747 37.0445 28.5595 37.1287L28.2365 38.5335C28.2158 38.637 28.1786 38.695 28.1468 38.7833C28.1082 38.8923 28.1206 38.9516 28.0875 39.0634C28.0461 39.2042 28.0295 39.1435 27.9867 39.3022C27.9577 39.4126 27.9619 39.4719 27.9205 39.5754L27.7493 40.0819C27.6927 40.1978 27.7065 40.2364 27.672 40.3441C27.6403 40.4448 27.6016 40.4931 27.5699 40.58L27.1006 41.8041C27.0537 41.9242 27.0302 41.9214 26.9764 42.0525L26.8674 42.283C26.8177 42.3947 26.8108 42.4141 26.7583 42.512C26.5596 42.8777 26.3981 43.2724 26.1828 43.6298L25.5299 44.6704C25.2277 45.1423 24.8619 45.6143 24.4907 46.0352C24.4313 46.1028 24.3816 46.1359 24.3236 46.2063C24.2022 46.3512 24.1387 46.4299 24.0007 46.5596C23.962 46.5955 23.9468 46.6079 23.9123 46.6396L23.824 46.721C23.7743 46.7638 23.7798 46.7555 23.7343 46.8011C23.4113 47.1171 22.9034 47.5518 22.5252 47.8264C22.401 47.9161 22.1898 48.0017 22.1484 48.1604L22.1512 48.1576Z" fill="white"/>
<path fill-rule="evenodd" clip-rule="evenodd" d="M175.349 50.3467H157.941L155.389 57.0121H172.797L175.349 50.3467Z" fill="#4550A2"/>
<path fill-rule="evenodd" clip-rule="evenodd" d="M176.911 50.3467L174.357 57.0121H191.766L194.318 50.3467H176.911Z" fill="#F15F34"/>
<path fill-rule="evenodd" clip-rule="evenodd" d="M195.88 50.3467L193.328 57.0121H210.737L213.289 50.3467H195.88Z" fill="#F7BB44"/>
<path fill-rule="evenodd" clip-rule="evenodd" d="M214.851 50.3467L212.299 57.0121H229.706L232.259 50.3467H214.851Z" fill="#ED2125"/>
</svg>
