<svg width="296" height="96" viewBox="0 0 296 96" fill="none" xmlns="http://www.w3.org/2000/svg">
<path d="M48.6886 74.0028H59.8182C59.8182 86.0908 49.9825 95.9186 37.9025 95.9186C25.8224 95.9186 15.9867 86.0908 15.9867 74.0028V52.2029C15.9867 51.2325 16.0506 50.274 16.1704 49.3356C17.58 38.6053 26.7888 30.2871 37.9025 30.2871C49.9825 30.2871 59.8182 40.1228 59.8182 52.2029H48.6886C48.6886 46.9995 44.9907 42.6507 40.0828 41.6363C40.0788 41.6323 40.0709 41.6323 40.0709 41.6323C39.4878 41.5165 38.8888 41.4407 38.2818 41.4247C38.154 41.4127 38.0262 41.4127 37.8985 41.4127C31.9483 41.4127 27.1083 46.2487 27.1083 52.2029V74.0028C27.1083 79.953 31.9443 84.793 37.8985 84.793C43.8526 84.793 48.6886 79.957 48.6886 74.0028Z" fill="url(#paint0_linear_154_48)"/>
<path d="M37.8986 14.6709C52.2108 14.671 65.3891 23.069 71.463 36.0674C72.3974 38.0441 73.1364 40.0766 73.6954 42.1611C74.5261 45.252 74.9415 48.4473 74.9415 51.7139V84.1719H63.7433V51.7178C63.7433 50.4718 63.6515 49.2173 63.4718 47.9873C61.6427 35.3804 50.6532 25.8683 37.8986 25.8682C23.6501 25.8682 12.0568 37.4614 12.0568 51.7178V84.1719H0.859497V51.7178C0.859497 51.4722 0.86448 51.2269 0.869263 50.9824V14.7715H11.9474V25.3125C18.6356 18.7354 27.8013 14.6709 37.8986 14.6709Z" fill="url(#paint1_linear_154_48)"/>
<path d="M7.31342 11.9472C10.3659 11.4539 12.4406 8.57949 11.9473 5.527C11.454 2.4745 8.57951 0.399873 5.52702 0.893176C2.47452 1.38648 0.3999 4.26091 0.893203 7.3134C1.38651 10.3659 4.26093 12.4405 7.31342 11.9472Z" fill="url(#paint2_linear_154_48)"/>
<rect x="0.859497" y="14.7661" width="4.17445" height="69.4061" fill="#DB5D02"/>
<path d="M21.8136 75.8852C24.933 98.0084 53.8923 92.7345 53.8923 75.8847L48.6997 74.0094L48.4916 76.3935C42.9257 90.1412 27.732 85.1404 27.0548 74.7729V50.4233C31.4194 36.1569 48.291 40.2037 48.7105 52.2312L54.0558 48.7281C47.6333 27.8317 22.4624 34.4324 21.8136 49.3062V75.8852Z" fill="url(#paint3_linear_154_48)"/>
<path d="M54.0497 48.678L48.7484 52.1926H59.7624L54.0497 48.678Z" fill="#486911"/>
<path d="M53.8935 75.8866L48.6797 74.0143H59.8182L53.8935 75.8866Z" fill="#96BE32"/>
<path d="M68.7588 48.2552V81.5671C68.7588 82.9469 67.6402 84.0654 66.2605 84.0654C64.8836 84.0654 63.7663 82.9514 63.7622 81.5745L63.6718 51.0084C63.6687 49.9603 63.6672 49.4363 63.5977 48.806C63.5509 48.3808 63.4292 47.6931 63.3272 47.2777C63.1761 46.6619 63.0522 46.3196 62.8043 45.6351C53.045 18.6809 24.5572 22.824 16.3195 37.2288C15.86 38.0322 15.0303 38.5768 14.1048 38.5768C12.3413 38.5768 11.2074 36.7157 12.1285 35.2118C29.4248 6.96915 66.8472 24.0967 68.7588 48.2552Z" fill="url(#paint4_linear_154_48)"/>
<rect x="63.7404" y="78.8579" width="5.01846" height="5.31498" fill="#D96103"/>
<path d="M96.2612 30.6821H100.058V47.2949H96.902L88.6193 37.2086V47.2949H84.8221V30.6821H88.0023L96.2612 40.7685V30.6821ZM107.81 44.2097H116.852V47.2949H103.989V30.6821H116.544V33.7673H107.81V37.3747H115.523V40.365H107.81V44.2097ZM123.732 44.2097H132.774V47.2949H119.911V30.6821H132.466V33.7673H123.732V37.3747H131.445V40.365H123.732V44.2097ZM135.833 47.2949V30.6821H139.678V44.1622H148.008V47.2949H135.833ZM162.707 47.2949L161.236 43.735H153.523L152.052 47.2949H148.112L155.517 30.6821H159.314L166.742 47.2949H162.707ZM154.757 40.8159H160.026L157.391 34.4556L154.757 40.8159ZM176.184 47.5797C171.034 47.5797 167.19 43.9961 167.19 38.9885C167.19 33.9809 171.034 30.3973 176.208 30.3973C179.08 30.3973 181.477 31.4415 183.043 33.3402L180.575 35.6185C179.459 34.3369 178.059 33.6724 176.398 33.6724C173.289 33.6724 171.082 35.8558 171.082 38.9885C171.082 42.1212 173.289 44.3046 176.398 44.3046C178.059 44.3046 179.459 43.6401 180.575 42.3348L183.043 44.6131C181.477 46.5355 179.08 47.5797 176.184 47.5797ZM197.031 30.6821H200.876V47.2949H197.031V40.4837H189.484V47.2949H185.639V30.6821H189.484V37.2323H197.031V30.6821ZM217.218 47.2949L215.747 43.735H208.034L206.562 47.2949H202.623L210.027 30.6821H213.825L221.253 47.2949H217.218ZM209.268 40.8159H214.537L211.902 34.4556L209.268 40.8159ZM234.416 30.6821H238.213V47.2949H235.056L226.774 37.2086V47.2949H222.976V30.6821H226.157L234.416 40.7685V30.6821ZM242.143 47.2949V30.6821H249.69C255.125 30.6821 258.851 33.9572 258.851 38.9885C258.851 44.0198 255.125 47.2949 249.69 47.2949H242.143ZM245.988 44.1385H249.5C252.799 44.1385 254.959 42.1687 254.959 38.9885C254.959 35.8083 252.799 33.8385 249.5 33.8385H245.988V44.1385ZM276.465 47.2949H272.335L269.131 42.6671H268.941H265.595V47.2949H261.75V30.6821H268.941C273.379 30.6821 276.156 32.9842 276.156 36.7102C276.156 39.2021 274.898 41.0295 272.739 41.9551L276.465 47.2949ZM272.264 36.7102C272.264 34.8828 271.077 33.8148 268.728 33.8148H265.595V39.6056H268.728C271.077 39.6056 272.264 38.5139 272.264 36.7102ZM291.614 47.2949L290.143 43.735H282.43L280.959 47.2949H277.019L284.423 30.6821H288.221L295.649 47.2949H291.614ZM283.664 40.8159H288.933L286.298 34.4556L283.664 40.8159Z" fill="#F48120"/>
<line x1="82.8523" y1="56.0637" x2="295.852" y2="56.0637" stroke="#53751D" stroke-width="0.791087"/>
<path d="M83.1292 65.8549C83.1292 65.3116 83.2505 64.8264 83.4931 64.3993C83.7409 63.9668 84.0758 63.6319 84.4978 63.3946C84.9249 63.152 85.4022 63.0307 85.9296 63.0307C86.5467 63.0307 87.0872 63.1889 87.5513 63.5053C88.0155 63.8218 88.3398 64.2595 88.5244 64.8185H87.2507C87.1242 64.5548 86.9448 64.3571 86.7128 64.2252C86.486 64.0934 86.2223 64.0274 85.9217 64.0274C85.6 64.0274 85.3126 64.1039 85.0594 64.2569C84.8116 64.4045 84.6164 64.6155 84.474 64.8897C84.3369 65.164 84.2683 65.4857 84.2683 65.8549C84.2683 66.2188 84.3369 66.5405 84.474 66.82C84.6164 67.0942 84.8116 67.3078 85.0594 67.4608C85.3126 67.6084 85.6 67.6823 85.9217 67.6823C86.2223 67.6823 86.486 67.6163 86.7128 67.4845C86.9448 67.3474 87.1242 67.147 87.2507 66.8833H88.5244C88.3398 67.4476 88.0155 67.8879 87.5513 68.2044C87.0925 68.5155 86.5519 68.6711 85.9296 68.6711C85.4022 68.6711 84.9249 68.5525 84.4978 68.3151C84.0758 68.0725 83.7409 67.7376 83.4931 67.3105C83.2505 66.8833 83.1292 66.3981 83.1292 65.8549ZM96.3844 68.679C95.8676 68.679 95.393 68.5577 94.9605 68.3151C94.528 68.0725 94.1852 67.7376 93.9321 67.3105C93.6789 66.878 93.5524 66.3902 93.5524 65.8469C93.5524 65.309 93.6789 64.8264 93.9321 64.3993C94.1852 63.9668 94.528 63.6293 94.9605 63.3867C95.393 63.1441 95.8676 63.0228 96.3844 63.0228C96.9066 63.0228 97.3812 63.1441 97.8084 63.3867C98.2409 63.6293 98.581 63.9668 98.8289 64.3993C99.0821 64.8264 99.2086 65.309 99.2086 65.8469C99.2086 66.3902 99.0821 66.878 98.8289 67.3105C98.581 67.7376 98.2409 68.0725 97.8084 68.3151C97.3759 68.5577 96.9013 68.679 96.3844 68.679ZM96.3844 67.6902C96.7167 67.6902 97.0094 67.6163 97.2626 67.4687C97.5157 67.3157 97.7135 67.0995 97.8559 66.82C97.9983 66.5405 98.0695 66.2161 98.0695 65.8469C98.0695 65.4778 97.9983 65.1561 97.8559 64.8818C97.7135 64.6023 97.5157 64.3887 97.2626 64.241C97.0094 64.0934 96.7167 64.0195 96.3844 64.0195C96.0522 64.0195 95.7569 64.0934 95.4984 64.241C95.2453 64.3887 95.0475 64.6023 94.9051 64.8818C94.7627 65.1561 94.6915 65.4778 94.6915 65.8469C94.6915 66.2161 94.7627 66.5405 94.9051 66.82C95.0475 67.0995 95.2453 67.3157 95.4984 67.4687C95.7569 67.6163 96.0522 67.6902 96.3844 67.6902ZM109.106 68.6237H107.999L105.491 64.8344V68.6237H104.384V63.094H105.491L107.999 66.8912V63.094H109.106V68.6237ZM116.458 68.679C116.073 68.679 115.725 68.6131 115.414 68.4813C115.108 68.3494 114.866 68.1596 114.686 67.9117C114.507 67.6638 114.415 67.3711 114.409 67.0336H115.596C115.612 67.2604 115.691 67.4397 115.833 67.5715C115.981 67.7034 116.181 67.7693 116.435 67.7693C116.693 67.7693 116.896 67.7086 117.044 67.5873C117.191 67.4608 117.265 67.2973 117.265 67.0969C117.265 66.9334 117.215 66.7989 117.115 66.6934C117.015 66.5879 116.888 66.5062 116.735 66.4482C116.588 66.3849 116.382 66.3163 116.118 66.2425C115.76 66.137 115.467 66.0342 115.24 65.934C115.019 65.8285 114.826 65.6729 114.663 65.4672C114.504 65.2563 114.425 64.9767 114.425 64.6287C114.425 64.3017 114.507 64.0169 114.67 63.7743C114.834 63.5317 115.063 63.3471 115.359 63.2205C115.654 63.0887 115.992 63.0228 116.371 63.0228C116.941 63.0228 117.402 63.1625 117.756 63.442C118.114 63.7163 118.312 64.1013 118.349 64.597H117.131C117.12 64.4072 117.038 64.2516 116.886 64.1303C116.738 64.0037 116.54 63.9404 116.292 63.9404C116.076 63.9404 115.902 63.9958 115.77 64.1066C115.644 64.2173 115.58 64.3782 115.58 64.5891C115.58 64.7368 115.628 64.8607 115.723 64.9609C115.823 65.0559 115.944 65.135 116.087 65.1983C116.234 65.2563 116.44 65.3248 116.704 65.4039C117.062 65.5094 117.355 65.6149 117.582 65.7204C117.808 65.8258 118.004 65.9841 118.167 66.195C118.331 66.406 118.412 66.6829 118.412 67.0257C118.412 67.321 118.336 67.5952 118.183 67.8484C118.03 68.1015 117.806 68.3046 117.51 68.4575C117.215 68.6052 116.864 68.679 116.458 68.679ZM127.481 63.1019V63.9958H126.01V68.6237H124.902V63.9958H123.431V63.1019H127.481ZM135.488 68.6237L134.27 66.4719H133.748V68.6237H132.64V63.1019H134.713C135.14 63.1019 135.504 63.1783 135.805 63.3313C136.105 63.479 136.329 63.682 136.477 63.9404C136.63 64.1936 136.706 64.4784 136.706 64.7948C136.706 65.1587 136.601 65.4883 136.39 65.7837C136.179 66.0737 135.865 66.2741 135.449 66.3849L136.77 68.6237H135.488ZM133.748 65.6413H134.673C134.974 65.6413 135.198 65.5701 135.346 65.4277C135.493 65.28 135.567 65.077 135.567 64.8185C135.567 64.5654 135.493 64.3702 135.346 64.2331C135.198 64.0907 134.974 64.0195 134.673 64.0195H133.748V65.6413ZM143.151 63.1019V66.5194C143.151 66.8938 143.248 67.1812 143.443 67.3817C143.639 67.5768 143.913 67.6744 144.266 67.6744C144.625 67.6744 144.902 67.5768 145.097 67.3817C145.292 67.1812 145.39 66.8938 145.39 66.5194V63.1019H146.505V66.5115C146.505 66.9808 146.402 67.379 146.196 67.706C145.996 68.0277 145.724 68.2703 145.382 68.4338C145.044 68.5973 144.667 68.679 144.25 68.679C143.839 68.679 143.465 68.5973 143.127 68.4338C142.795 68.2703 142.531 68.0277 142.336 67.706C142.141 67.379 142.043 66.9808 142.043 66.5115V63.1019H143.151ZM151.657 65.8549C151.657 65.3116 151.778 64.8264 152.021 64.3993C152.269 63.9668 152.604 63.6319 153.026 63.3946C153.453 63.152 153.93 63.0307 154.457 63.0307C155.075 63.0307 155.615 63.1889 156.079 63.5053C156.543 63.8218 156.868 64.2595 157.052 64.8185H155.779C155.652 64.5548 155.473 64.3571 155.241 64.2252C155.014 64.0934 154.75 64.0274 154.45 64.0274C154.128 64.0274 153.84 64.1039 153.587 64.2569C153.339 64.4045 153.144 64.6155 153.002 64.8897C152.865 65.164 152.796 65.4857 152.796 65.8549C152.796 66.2188 152.865 66.5405 153.002 66.82C153.144 67.0942 153.339 67.3078 153.587 67.4608C153.84 67.6084 154.128 67.6823 154.45 67.6823C154.75 67.6823 155.014 67.6163 155.241 67.4845C155.473 67.3474 155.652 67.147 155.779 66.8833H157.052C156.868 67.4476 156.543 67.8879 156.079 68.2044C155.62 68.5155 155.08 68.6711 154.457 68.6711C153.93 68.6711 153.453 68.5525 153.026 68.3151C152.604 68.0725 152.269 67.7376 152.021 67.3105C151.778 66.8833 151.657 66.3981 151.657 65.8549ZM166.107 63.1019V63.9958H164.635V68.6237H163.528V63.9958H162.057V63.1019H166.107ZM172.373 63.1019V68.6237H171.266V63.1019H172.373ZM180.382 68.679C179.865 68.679 179.39 68.5577 178.958 68.3151C178.525 68.0725 178.183 67.7376 177.929 67.3105C177.676 66.878 177.55 66.3902 177.55 65.8469C177.55 65.309 177.676 64.8264 177.929 64.3993C178.183 63.9668 178.525 63.6293 178.958 63.3867C179.39 63.1441 179.865 63.0228 180.382 63.0228C180.904 63.0228 181.379 63.1441 181.806 63.3867C182.238 63.6293 182.578 63.9668 182.826 64.3993C183.079 64.8264 183.206 65.309 183.206 65.8469C183.206 66.3902 183.079 66.878 182.826 67.3105C182.578 67.7376 182.238 68.0725 181.806 68.3151C181.373 68.5577 180.899 68.679 180.382 68.679ZM180.382 67.6902C180.714 67.6902 181.007 67.6163 181.26 67.4687C181.513 67.3157 181.711 67.0995 181.853 66.82C181.996 66.5405 182.067 66.2161 182.067 65.8469C182.067 65.4778 181.996 65.1561 181.853 64.8818C181.711 64.6023 181.513 64.3887 181.26 64.241C181.007 64.0934 180.714 64.0195 180.382 64.0195C180.05 64.0195 179.754 64.0934 179.496 64.241C179.243 64.3887 179.045 64.6023 178.902 64.8818C178.76 65.1561 178.689 65.4778 178.689 65.8469C178.689 66.2161 178.76 66.5405 178.902 66.82C179.045 67.0995 179.243 67.3157 179.496 67.4687C179.754 67.6163 180.05 67.6902 180.382 67.6902ZM193.104 68.6237H191.996L189.488 64.8344V68.6237H188.381V63.094H189.488L191.996 66.8912V63.094H193.104V68.6237ZM209.033 68.6237L208.432 68.0303C207.92 68.4892 207.296 68.7186 206.557 68.7186C206.151 68.7186 205.792 68.65 205.481 68.5129C205.175 68.3705 204.938 68.1727 204.769 67.9196C204.601 67.6612 204.516 67.3632 204.516 67.0257C204.516 66.6618 204.619 66.3348 204.825 66.0447C205.03 65.7546 205.334 65.52 205.734 65.3406C205.592 65.1666 205.489 65.0005 205.426 64.8423C205.363 64.6788 205.331 64.5047 205.331 64.3201C205.331 64.067 205.397 63.8402 205.529 63.6398C205.661 63.4341 205.848 63.2733 206.09 63.1572C206.338 63.0412 206.626 62.9832 206.953 62.9832C207.285 62.9832 207.57 63.0465 207.807 63.1731C208.044 63.2996 208.221 63.4684 208.337 63.6794C208.453 63.8903 208.503 64.125 208.487 64.3834H207.412C207.417 64.2094 207.375 64.0775 207.285 63.9879C207.195 63.893 207.074 63.8455 206.921 63.8455C206.773 63.8455 206.649 63.8903 206.549 63.98C206.454 64.0644 206.407 64.1751 206.407 64.3122C206.407 64.4441 206.446 64.5759 206.526 64.7078C206.605 64.8344 206.734 64.9926 206.913 65.1824L208.305 66.5589C208.316 66.5484 208.324 66.5378 208.329 66.5273C208.334 66.5167 208.34 66.5062 208.345 66.4956L208.796 65.7441H209.951L209.397 66.7171C209.292 66.9228 209.178 67.118 209.057 67.3025L210.394 68.6237H209.033ZM206.589 67.8009C207.021 67.8009 207.404 67.648 207.736 67.3421L206.375 65.9972C205.864 66.224 205.608 66.5457 205.608 66.9624C205.608 67.1997 205.698 67.4001 205.877 67.5636C206.056 67.7218 206.293 67.8009 206.589 67.8009ZM222.637 63.1019V68.6237H221.529V63.1019H222.637ZM232.805 68.6237H231.697L229.19 64.8344V68.6237H228.082V63.094H229.19L231.697 66.8912V63.094H232.805V68.6237ZM242.008 63.1019V63.9958H240.536V68.6237H239.429V63.9958H237.958V63.1019H242.008ZM248.275 63.9958V65.3802H250.134V66.2583H248.275V67.7218H250.371V68.6237H247.167V63.094H250.371V63.9958H248.275ZM258.576 68.6237L257.358 66.4719H256.836V68.6237H255.728V63.1019H257.801C258.228 63.1019 258.592 63.1783 258.893 63.3313C259.193 63.479 259.417 63.682 259.565 63.9404C259.718 64.1936 259.795 64.4784 259.795 64.7948C259.795 65.1587 259.689 65.4883 259.478 65.7837C259.267 66.0737 258.953 66.2741 258.537 66.3849L259.858 68.6237H258.576ZM256.836 65.6413H257.761C258.062 65.6413 258.286 65.5701 258.434 65.4277C258.582 65.28 258.655 65.077 258.655 64.8185C258.655 64.5654 258.582 64.3702 258.434 64.2331C258.286 64.0907 258.062 64.0195 257.761 64.0195H256.836V65.6413ZM266.255 63.1019V68.6237H265.147V63.1019H266.255ZM274.263 68.679C273.746 68.679 273.272 68.5577 272.839 68.3151C272.407 68.0725 272.064 67.7376 271.811 67.3105C271.558 66.878 271.431 66.3902 271.431 65.8469C271.431 65.309 271.558 64.8264 271.811 64.3993C272.064 63.9668 272.407 63.6293 272.839 63.3867C273.272 63.1441 273.746 63.0228 274.263 63.0228C274.785 63.0228 275.26 63.1441 275.687 63.3867C276.119 63.6293 276.46 63.9668 276.708 64.3993C276.961 64.8264 277.087 65.309 277.087 65.8469C277.087 66.3902 276.961 66.878 276.708 67.3105C276.46 67.7376 276.119 68.0725 275.687 68.3151C275.255 68.5577 274.78 68.679 274.263 68.679ZM274.263 67.6902C274.595 67.6902 274.888 67.6163 275.141 67.4687C275.394 67.3157 275.592 67.0995 275.734 66.82C275.877 66.5405 275.948 66.2161 275.948 65.8469C275.948 65.4778 275.877 65.1561 275.734 64.8818C275.592 64.6023 275.394 64.3887 275.141 64.241C274.888 64.0934 274.595 64.0195 274.263 64.0195C273.931 64.0195 273.635 64.0934 273.377 64.241C273.124 64.3887 272.926 64.6023 272.784 64.8818C272.641 65.1561 272.57 65.4778 272.57 65.8469C272.57 66.2161 272.641 66.5405 272.784 66.82C272.926 67.0995 273.124 67.3157 273.377 67.4687C273.635 67.6163 273.931 67.6902 274.263 67.6902ZM285.11 68.6237L283.892 66.4719H283.37V68.6237H282.262V63.1019H284.335C284.762 63.1019 285.126 63.1783 285.427 63.3313C285.727 63.479 285.951 63.682 286.099 63.9404C286.252 64.1936 286.328 64.4784 286.328 64.7948C286.328 65.1587 286.223 65.4883 286.012 65.7837C285.801 66.0737 285.487 66.2741 285.071 66.3849L286.392 68.6237H285.11ZM283.37 65.6413H284.295C284.596 65.6413 284.82 65.5701 284.968 65.4277C285.115 65.28 285.189 65.077 285.189 64.8185C285.189 64.5654 285.115 64.3702 284.968 64.2331C284.82 64.0907 284.596 64.0195 284.295 64.0195H283.37V65.6413ZM293.588 68.679C293.203 68.679 292.855 68.6131 292.543 68.4813C292.237 68.3494 291.995 68.1596 291.816 67.9117C291.636 67.6638 291.544 67.3711 291.539 67.0336H292.725C292.741 67.2604 292.82 67.4397 292.963 67.5715C293.11 67.7034 293.311 67.7693 293.564 67.7693C293.822 67.7693 294.025 67.7086 294.173 67.5873C294.321 67.4608 294.394 67.2973 294.394 67.0969C294.394 66.9334 294.344 66.7989 294.244 66.6934C294.144 66.5879 294.017 66.5062 293.864 66.4482C293.717 66.3849 293.511 66.3163 293.247 66.2425C292.889 66.137 292.596 66.0342 292.369 65.934C292.148 65.8285 291.955 65.6729 291.792 65.4672C291.634 65.2563 291.554 64.9767 291.554 64.6287C291.554 64.3017 291.636 64.0169 291.8 63.7743C291.963 63.5317 292.193 63.3471 292.488 63.2205C292.783 63.0887 293.121 63.0228 293.501 63.0228C294.07 63.0228 294.532 63.1625 294.885 63.442C295.244 63.7163 295.441 64.1013 295.478 64.597H294.26C294.249 64.4072 294.168 64.2516 294.015 64.1303C293.867 64.0037 293.669 63.9404 293.421 63.9404C293.205 63.9404 293.031 63.9958 292.899 64.1066C292.773 64.2173 292.709 64.3782 292.709 64.5891C292.709 64.7368 292.757 64.8607 292.852 64.9609C292.952 65.0559 293.073 65.135 293.216 65.1983C293.363 65.2563 293.569 65.3248 293.833 65.4039C294.191 65.5094 294.484 65.6149 294.711 65.7204C294.938 65.8258 295.133 65.9841 295.296 66.195C295.46 66.406 295.542 66.6829 295.542 67.0257C295.542 67.321 295.465 67.5952 295.312 67.8484C295.159 68.1015 294.935 68.3046 294.64 68.4575C294.344 68.6052 293.994 68.679 293.588 68.679Z" fill="#53751D"/>
<defs>
<linearGradient id="paint0_linear_154_48" x1="15.9867" y1="61.2662" x2="59.8182" y2="63.1028" gradientUnits="userSpaceOnUse">
<stop stop-color="#375709"/>
<stop offset="0.278846" stop-color="#6C9122"/>
<stop offset="0.826923" stop-color="#ABD33B"/>
<stop offset="1" stop-color="#517121"/>
</linearGradient>
<linearGradient id="paint1_linear_154_48" x1="22.6212" y1="18.2328" x2="73.8912" y2="84.1723" gradientUnits="userSpaceOnUse">
<stop stop-color="#F3800B"/>
<stop offset="0.307692" stop-color="#FEAB1E"/>
<stop offset="0.658654" stop-color="#FD9915"/>
<stop offset="1" stop-color="#FB7707"/>
</linearGradient>
<linearGradient id="paint2_linear_154_48" x1="2.06729" y1="8.24326" x2="11.4927" y2="4.81584" gradientUnits="userSpaceOnUse">
<stop stop-color="#476812"/>
<stop offset="0.3125" stop-color="#668924"/>
<stop offset="0.75" stop-color="#9BDB36"/>
</linearGradient>
<linearGradient id="paint3_linear_154_48" x1="55.5685" y1="60.9301" x2="18.4175" y2="60.8375" gradientUnits="userSpaceOnUse">
<stop stop-color="#375709"/>
<stop offset="0.278846" stop-color="#6C9122"/>
<stop offset="0.826923" stop-color="#ABD33B"/>
<stop offset="1" stop-color="#517121"/>
</linearGradient>
<linearGradient id="paint4_linear_154_48" x1="27.4559" y1="24.8675" x2="74.592" y2="78.1772" gradientUnits="userSpaceOnUse">
<stop stop-color="#F78F11"/>
<stop offset="0.307692" stop-color="#E46F09"/>
<stop offset="0.658654" stop-color="#B14602"/>
<stop offset="1" stop-color="#E26704"/>
</linearGradient>
</defs>
</svg>
