<svg width="249" height="56" viewBox="0 0 249 56" fill="none" xmlns="http://www.w3.org/2000/svg">
<path d="M0 49.77L5.57001 55.17L11.02 49.77L11.11 44.05L5.54999 49.6L0 44.05V49.77Z" fill="#F7CC46"/>
<path fill-rule="evenodd" clip-rule="evenodd" d="M33.1198 11.13L44.1998 0H0.00976562V11.07V11.13V38.59L5.56976 44.12L11.0197 38.6V11.13H33.1198Z" fill="#F7CC46"/>
<path d="M44.1904 5.39996L49.6404 0L55.2104 5.39996V10.96L49.6504 5.54999L44.1904 10.96V5.39996Z" fill="#F7CC46"/>
<path fill-rule="evenodd" clip-rule="evenodd" d="M55.2203 44.16V16.52L49.6403 11.08L44.2003 16.52V44.04H22.1103L11.0303 55.17H55.2203V44.16Z" fill="#F7CC46"/>
<path d="M16.5303 22.02H38.5703V33.03H30.3603L27.6103 30.28L24.8003 33.03H16.5303V22.02Z" fill="#507BBA"/>
<path d="M14.85 25.28H12.71V29.77H14.85V25.28Z" fill="#507BBA"/>
<path d="M42.3997 25.28H40.2598V29.77H42.3997V25.28Z" fill="#507BBA"/>
<path d="M68.8198 18.55H74.8098V26.49H86.6698V18.55H92.6598V38.4H86.6698V30.52H74.8098V38.4L68.8198 38.37V18.55ZM97.0198 21.98H103.01V38.37H97.0198V21.98ZM103.01 20.22H97.0198V15.54H103.01V20.22ZM127.28 21.98L122.88 26.43H113.01V38.37H107.02V26.52L111.53 21.98H127.28ZM149.62 26.52V33.95L145.11 38.4H131.86L127.35 33.95V26.52L131.86 21.98H145.11L149.62 26.52ZM143.64 26.43H133.34V33.94H143.64V26.43ZM158.92 23V33.94H169.96V30.51H165.87L161.81 26.48H175.94V33.94L171.51 38.39H157.44L152.93 33.94V23.08L157.44 18.54H176.65L172.25 22.99H158.91L158.92 23ZM179.7 33.91V21.97H185.69V33.91H195.68V21.97H201.67V38.36H195.68V36.2L193.52 38.36H184.21L179.7 33.91ZM205.92 21.98H211.91V38.37H205.92V21.98ZM211.91 20.22H205.92V15.54H211.91V20.22ZM222.19 15.12V38.4L216.2 38.37V18.58L222.19 15.12ZM225.91 33.94V26.51L230.42 21.97H242.2V18.57L248.19 15.11V38.36H242.2V36.23L240.04 38.39H230.42L225.91 33.94ZM231.9 33.94H242.2V26.43H231.9V33.94Z" fill="#507BBA"/>
</svg>
