<svg width="217" height="62" viewBox="0 0 217 62" fill="none" xmlns="http://www.w3.org/2000/svg">
<g clip-path="url(#clip0_137_286)">
<path d="M80.81 20.15C80.58 20.36 80.29 20.58 79.92 20.85C76.87 23.05 72.99 24.41 68.89 25.86C61.86 28.34 54.6 30.9 49.98 37.96C48.79 39.77 48.34 41.61 48.66 43.18C49.13 42.41 49.57 41.71 50.13 40.95L50.67 40.22L51.19 40.96C53.02 43.55 55.83 45.03 58.91 45.03C60.6 45.03 62.33 44.58 63.9 43.72C66.26 42.43 67.84 40.46 68.35 38.16C68.85 35.91 68.28 33.53 66.73 31.46L66.24 30.8L71.42 28.71L71.73 29.05C74.52 32.19 75.41 36.1 74.32 40.37C73.18 44.82 69.5 48.61 64.69 50.25C62.89 50.87 61.06 51.18 59.25 51.18C56.78 51.18 54.37 50.61 52.05 49.5C53.08 50.62 54.4 51.5 55.64 52.26C57.7 53.53 60.13 54.2 62.67 54.2C65.21 54.2 67.58 53.58 69.81 52.42C71.36 51.61 72.72 50.58 73.98 49.28C76.36 46.81 78.01 43.63 78.75 40.09C79.35 37.23 79.21 35.49 79.21 35.47C79.01 32.85 78.52 30.53 77.68 28.18C76.96 26.17 77.28 24.6 78.72 23.09C79.71 22.06 80.4 21.08 80.81 20.15ZM66.32 35.59L67.2 35.69C67.41 35.74 67.37 35.97 67.17 35.96C65.68 35.91 65.16 35.63 64.62 36.44C64.4 36.77 64.33 37.33 64.66 37.82L66.05 39.28C66.05 39.71 64.18 37.7 62.89 38.67C61.8 39.48 63.26 42.02 62.82 41.97L61.67 40.15C61.47 39.86 60.72 39.71 60.21 39.89C59.05 40.29 59.31 42.53 59.08 42.48C58.81 42.44 59.1 40.35 58.31 39.8C58.02 39.6 57.54 39.69 57.3 39.94L55.69 41.58C55.24 41.65 57.17 39.65 55.75 38.6C54.14 37.41 52.71 39.27 52.62 38.88L54.41 37.38C56.36 35.75 57.58 40.58 62.11 37.89C65.34 35.98 63.26 31.76 64.03 32.35C64.09 32.4 64.25 32.78 64.27 32.97C64.29 33.22 64.33 33.51 64.36 33.7C64.5 34.52 64.91 35.38 66.32 35.58V35.59Z" fill="white"/>
<path d="M22.17 27.99L12.35 24.29C9.63999 23.27 7.20999 22.3 4.91999 20.87C4.48999 20.6 4.15999 20.24 3.89999 19.85C4.39999 21.19 5.33999 22.27 5.86999 22.8C7.47999 24.42 7.85999 26.02 7.13999 28.15C6.24999 30.78 5.76999 33.1 5.62999 35.45C5.62999 35.51 5.22999 41.65 7.77999 45.09L7.92999 45.3V45.35C9.75999 48.67 12.26 51.07 15.55 52.69C17.58 53.69 19.84 54.22 22.07 54.22C25.35 54.22 28.53 53.1 31.02 51.05L31.14 50.95C31.71 50.48 32.27 50.03 32.76 49.52C30.43 50.63 28.03 51.2 25.59 51.2C23.74 51.2 21.85 50.87 19.98 50.21C15.45 48.62 11.87 45.04 10.64 40.85C9.34999 36.47 10.23 32.28 13.1 29.07L13.41 28.72L18.59 30.87L18.09 31.52C16.61 33.46 16.01 35.72 16.41 37.87C16.82 40.08 18.23 42.05 20.39 43.4C22.1 44.47 24.01 45.04 25.91 45.04C28.99 45.04 31.81 43.54 33.65 40.93L34.21 40.13L36.14 43.2C36.35 42.03 36.18 40.77 35.62 39.44C33.44 34.27 26.29 29.55 22.15 27.98L22.17 27.99ZM29.62 39.41C28.2 40.46 30.13 42.46 29.68 42.39L28.07 40.75C27.82 40.5 27.35 40.41 27.06 40.61C26.27 41.16 26.55 43.25 26.29 43.29C26.06 43.34 26.32 41.1 25.16 40.7C24.65 40.52 23.9 40.67 23.7 40.96L22.55 42.78C22.12 42.83 23.57 40.29 22.48 39.48C21.19 38.52 19.31 40.53 19.32 40.09L20.71 38.63C21.03 38.14 20.97 37.58 20.75 37.25C20.21 36.44 19.69 36.71 18.2 36.77C18 36.77 17.96 36.55 18.17 36.5L19.05 36.4C20.46 36.21 20.87 35.35 21.01 34.52C21.04 34.33 21.08 34.04 21.1 33.79C21.12 33.6 21.28 33.21 21.34 33.17C22.11 32.57 20.03 36.79 23.26 38.71C27.79 41.39 29.01 36.56 30.96 38.2L32.75 39.7C32.66 40.09 31.23 38.23 29.62 39.42V39.41Z" fill="white"/>
<path d="M46.72 52.08C48.33 52.39 49.58 53.98 49.47 55.62C49.36 57.29 47.97 58.99 45.82 58.96C45.67 58.96 45.53 58.96 45.38 58.94C44.6 58.88 43.98 58.71 43.54 58.42C44.3 59.13 45.24 59.56 46.22 59.63C46.91 59.68 47.6 59.56 48.26 59.27C49.97 58.52 50.88 56.8 50.46 55.08C50.08 53.52 48.59 52.33 46.71 52.09L46.72 52.08Z" fill="white"/>
<path d="M47.14 51.81C48.18 50.21 46.62 48.3 44.93 46.47C44.4 45.89 43.94 45.4 43.65 44.95L43.49 44.71L43.57 44.43C46.12 35.19 52.8 27.81 62.38 23.65C64.54 22.71 66.67 22.01 68.73 21.32C72.25 20.15 75.58 19.05 78.75 16.93C83.91 13.48 85.83 7.83001 84.16 1.26001C80.7 8.19001 74.91 10.43 68.28 13C64.05 14.64 59.26 16.49 54.46 19.85C49.18 23.54 45.59 28.47 44.08 34.12L42.91 38.5L41.64 38.42C40.18 26.82 33.32 19.47 18.69 13.87L17.46 13.4C10.32 10.7 4.11001 8.33001 0.580008 1.40001C-1.21999 8.35001 1.17001 14.26 7.27001 17.78C9.99001 19.36 12.8 20.27 15.77 21.24C19.94 22.6 24.26 24.01 29.03 27.39C36.36 32.58 38.97 37.42 41.23 44.53L41.34 44.87L38.54 47.95C37.2 49.43 36.96 51.29 37.88 53.05C39.26 55.69 40.77 58.14 42.36 60.69L47.14 51.8V51.81Z" fill="white"/>
<path d="M88.65 0H100.87L110.34 37.09H110.52V0H119.2V61.97H109.2L97.51 16.73H97.33V61.97H88.65V0ZM131.3 0H144.49L154.58 61.97H144.84L143.07 49.66V49.84H132L130.23 61.97H121.2L131.3 0ZM141.93 41.43L137.59 10.8H137.41L133.16 41.43H141.92H141.93ZM155.05 53.29L173.11 8.85H155.94V0H183.56V8.68L165.5 53.12H183.56V61.97H155.05V53.29ZM186.42 0H200.85C205.87 0 209.53 1.18 211.83 3.54C214.13 5.84 215.28 9.41 215.28 14.25V18.06C215.28 24.49 213.16 28.57 208.91 30.28V30.46C211.27 31.17 212.92 32.61 213.87 34.8C214.87 36.98 215.37 39.9 215.37 43.56V54.45C215.37 56.22 215.43 57.67 215.55 58.79C215.67 59.85 215.96 60.91 216.44 61.98H206.53C206.18 60.98 205.94 60.03 205.82 59.15C205.7 58.26 205.64 56.67 205.64 54.37V43.04C205.64 40.21 205.17 38.23 204.22 37.11C203.33 35.99 201.77 35.43 199.53 35.43H196.17V61.99H186.43V0H186.42ZM199.7 26.56C201.65 26.56 203.09 26.06 204.04 25.06C205.04 24.06 205.54 22.37 205.54 20.01V15.23C205.54 12.99 205.13 11.36 204.3 10.36C203.53 9.36 202.29 8.86 200.58 8.86H196.15V26.57H199.69L199.7 26.56Z" fill="white"/>
</g>
<defs>
<clipPath id="clip0_137_286">
<rect width="216.43" height="61.97" fill="white"/>
</clipPath>
</defs>
</svg>
