<svg width="185" height="60" viewBox="0 0 185 60" fill="none" xmlns="http://www.w3.org/2000/svg">
<path d="M30.4455 46.2749H37.4049C37.4049 53.8337 31.2545 59.9791 23.7008 59.9791C16.147 59.9791 9.99658 53.8337 9.99658 46.2749V32.6431C9.99658 32.0363 10.0365 31.437 10.1114 30.8502C10.9929 24.1405 16.7513 18.939 23.7008 18.939C31.2545 18.939 37.4049 25.0894 37.4049 32.6431H30.4455C30.4455 29.3894 28.1331 26.67 25.0642 26.0358C25.0617 26.0333 25.0567 26.0333 25.0567 26.0333C24.6921 25.9609 24.3175 25.9134 23.938 25.9034C23.8581 25.8959 23.7782 25.8959 23.6983 25.8959C19.9776 25.8959 16.951 28.9199 16.951 32.6431V46.2749C16.951 49.9956 19.9751 53.0221 23.6983 53.0221C27.4215 53.0221 30.4455 49.9981 30.4455 46.2749Z" fill="white"/>
<path d="M23.6978 9.17383C32.6474 9.17383 40.8879 14.4256 44.686 22.5537C45.2703 23.7897 45.7329 25.0608 46.0825 26.3643C46.6018 28.2969 46.8618 30.2944 46.8618 32.3369V52.6338H39.8599V32.3398C39.8599 31.5607 39.8023 30.7759 39.6899 30.0068C38.5461 22.1236 31.6734 16.1758 23.6978 16.1758C14.7882 16.176 7.53955 23.4253 7.53955 32.3398V52.6338H0.537598V32.3398C0.537598 32.1902 0.540617 32.0406 0.543457 31.8916V9.2373H7.47021V15.8281C11.6524 11.7153 17.3838 9.17393 23.6978 9.17383Z" fill="white"/>
<path d="M4.57317 7.47089C6.48193 7.16242 7.77923 5.365 7.47076 3.45624C7.16229 1.54748 5.36487 0.250191 3.45611 0.558658C1.54735 0.867126 0.250062 2.66454 0.55853 4.5733C0.866998 6.48206 2.66441 7.77936 4.57317 7.47089Z" fill="white"/>
<rect x="0.537598" y="9.2334" width="2.61033" height="43.4004" fill="white"/>
<path d="M13.6401 47.4519C15.5907 61.2858 33.6993 57.9879 33.6993 47.4516L30.4523 46.2789L30.3222 47.7697C26.8417 56.3664 17.341 53.2393 16.9175 46.7564V31.5303C19.6468 22.6094 30.1968 25.1399 30.4591 32.6608L33.8015 30.4703C29.7855 17.4035 14.0458 21.531 13.6401 30.8317V47.4519Z" fill="white"/>
<path d="M33.7978 30.439L30.4829 32.6367H37.3701L33.7978 30.439Z" fill="white"/>
<path d="M33.7002 47.4525L30.4399 46.2817H37.405L33.7002 47.4525Z" fill="white"/>
<path d="M42.9959 30.1745V51.0049C42.9959 51.8676 42.2965 52.5671 41.4337 52.5671C40.5727 52.5671 39.8741 51.8705 39.8715 51.0095L39.815 31.8961C39.8131 31.2407 39.8121 30.913 39.7687 30.5189C39.7394 30.2531 39.6633 29.823 39.5995 29.5633C39.505 29.1782 39.4276 28.9642 39.2726 28.5361C33.1699 11.6814 15.3562 14.2721 10.205 23.2796C9.91775 23.782 9.39892 24.1225 8.82019 24.1225C7.71745 24.1225 7.00844 22.9587 7.58436 22.0183C18.3999 4.35788 41.8006 15.0679 42.9959 30.1745Z" fill="white"/>
<rect x="39.8574" y="49.3105" width="3.1381" height="3.32352" fill="white"/>
<path d="M53.0403 29.1919V18.8037H55.0289L61.158 26.2832H60.1933V18.8037H62.5678V29.1919H60.594L54.4502 21.7124H55.4148V29.1919H53.0403ZM65.0256 29.1919V18.8037H72.8761V20.7329H67.4149V27.2627H73.069V29.1919H65.0256ZM67.2368 24.8585V22.9887H72.238V24.8585H67.2368ZM74.9819 29.1919V18.8037H82.8324V20.7329H77.3712V27.2627H83.0253V29.1919H74.9819ZM77.1931 24.8585V22.9887H82.1943V24.8585H77.1931ZM84.9382 29.1919V18.8037H87.3423V27.233H92.5513V29.1919H84.9382ZM92.5872 29.1919L97.2174 18.8037H99.5918L104.237 29.1919H101.714L97.9149 20.0206H98.8646L95.0507 29.1919H92.5872ZM94.9023 26.9659L95.5404 25.1405H100.883L101.536 26.9659H94.9023ZM110.141 29.37C109.34 29.37 108.593 29.2414 107.9 28.9841C107.218 28.717 106.624 28.3411 106.119 27.8563C105.615 27.3715 105.219 26.8026 104.932 26.1496C104.655 25.4967 104.517 24.7794 104.517 23.9978C104.517 23.2162 104.655 22.4989 104.932 21.846C105.219 21.193 105.615 20.6241 106.119 20.1393C106.634 19.6546 107.232 19.2835 107.915 19.0263C108.598 18.7592 109.345 18.6256 110.156 18.6256C111.056 18.6256 111.868 18.7839 112.59 19.1005C113.322 19.4072 113.935 19.8623 114.43 20.4658L112.887 21.8905C112.53 21.4849 112.135 21.1831 111.699 20.9852C111.264 20.7775 110.789 20.6736 110.275 20.6736C109.79 20.6736 109.345 20.7527 108.939 20.911C108.533 21.0693 108.182 21.2969 107.885 21.5937C107.589 21.8905 107.356 22.2417 107.188 22.6473C107.03 23.053 106.95 23.5031 106.95 23.9978C106.95 24.4925 107.03 24.9426 107.188 25.3483C107.356 25.7539 107.589 26.1051 107.885 26.4019C108.182 26.6987 108.533 26.9263 108.939 27.0846C109.345 27.2429 109.79 27.322 110.275 27.322C110.789 27.322 111.264 27.2231 111.699 27.0252C112.135 26.8175 112.53 26.5058 112.887 26.0903L114.43 27.5149C113.935 28.1184 113.322 28.5785 112.59 28.8951C111.868 29.2117 111.051 29.37 110.141 29.37ZM123.032 29.1919V18.8037H125.436V29.1919H123.032ZM115.909 29.1919V18.8037H118.313V29.1919H115.909ZM118.135 24.9327V22.8996H123.21V24.9327H118.135ZM126.529 29.1919L131.159 18.8037H133.533L138.178 29.1919H135.655L131.856 20.0206H132.806L128.992 29.1919H126.529ZM128.844 26.9659L129.482 25.1405H134.824L135.477 26.9659H128.844ZM139.256 29.1919V18.8037H141.244L147.374 26.2832H146.409V18.8037H148.783V29.1919H146.81L140.666 21.7124H141.63V29.1919H139.256ZM151.241 29.1919V18.8037H155.96C157.088 18.8037 158.083 19.0214 158.943 19.4567C159.804 19.8821 160.477 20.4807 160.962 21.2524C161.446 22.024 161.689 22.9392 161.689 23.9978C161.689 25.0465 161.446 25.9617 160.962 26.7433C160.477 27.5149 159.804 28.1184 158.943 28.5538C158.083 28.9792 157.088 29.1919 155.96 29.1919H151.241ZM153.645 27.2181H155.842C156.534 27.2181 157.133 27.0895 157.637 26.8323C158.152 26.5652 158.548 26.1892 158.825 25.7044C159.111 25.2197 159.255 24.6508 159.255 23.9978C159.255 23.3349 159.111 22.7661 158.825 22.2912C158.548 21.8064 158.152 21.4354 157.637 21.1782C157.133 20.911 156.534 20.7775 155.842 20.7775H153.645V27.2181ZM163.502 29.1919V18.8037H167.939C169.383 18.8037 170.506 19.1401 171.308 19.8128C172.109 20.4757 172.51 21.3958 172.51 22.5731C172.51 23.3448 172.327 24.0126 171.961 24.5766C171.595 25.1306 171.075 25.556 170.402 25.8528C169.73 26.1496 168.928 26.298 167.998 26.298H164.837L165.906 25.2444V29.1919H163.502ZM170.106 29.1919L167.509 25.4225H170.076L172.703 29.1919H170.106ZM165.906 25.5115L164.837 24.3836H167.865C168.607 24.3836 169.161 24.2254 169.527 23.9088C169.893 23.5823 170.076 23.1371 170.076 22.5731C170.076 21.9993 169.893 21.5541 169.527 21.2375C169.161 20.9209 168.607 20.7626 167.865 20.7626H164.837L165.906 19.6199V25.5115ZM173.049 29.1919L177.679 18.8037H180.054L184.699 29.1919H182.176L178.377 20.0206H179.327L175.513 29.1919H173.049ZM175.364 26.9659L176.002 25.1405H181.345L181.998 26.9659H175.364Z" fill="white"/>
<line x1="51.8086" y1="34.9231" x2="185" y2="34.9231" stroke="white" stroke-width="0.494675"/>
<path d="M51.9817 40.418C51.9817 40.0784 52.0576 39.775 52.2093 39.5078C52.3643 39.2374 52.5737 39.028 52.8375 38.8796C53.1046 38.7279 53.4031 38.6521 53.7329 38.6521C54.1187 38.6521 54.4568 38.751 54.747 38.9489C55.0372 39.1467 55.24 39.4205 55.3554 39.77H54.559C54.4798 39.6051 54.3677 39.4815 54.2226 39.399C54.0808 39.3166 53.9159 39.2753 53.7279 39.2753C53.5268 39.2753 53.347 39.3232 53.1887 39.4188C53.0337 39.5111 52.9117 39.6431 52.8227 39.8145C52.7369 39.986 52.6941 40.1872 52.6941 40.418C52.6941 40.6456 52.7369 40.8468 52.8227 41.0216C52.9117 41.193 53.0337 41.3266 53.1887 41.4222C53.347 41.5146 53.5268 41.5608 53.7279 41.5608C53.9159 41.5608 54.0808 41.5195 54.2226 41.4371C54.3677 41.3513 54.4798 41.226 54.559 41.0611H55.3554C55.24 41.414 55.0372 41.6894 54.747 41.8872C54.4601 42.0818 54.122 42.1791 53.7329 42.1791C53.4031 42.1791 53.1046 42.1049 52.8375 41.9565C52.5737 41.8048 52.3643 41.5954 52.2093 41.3283C52.0576 41.0611 51.9817 40.7577 51.9817 40.418ZM60.2704 42.184C59.9472 42.184 59.6504 42.1082 59.38 41.9565C59.1096 41.8048 58.8952 41.5954 58.7369 41.3283C58.5786 41.0578 58.4995 40.7528 58.4995 40.4131C58.4995 40.0767 58.5786 39.775 58.7369 39.5078C58.8952 39.2374 59.1096 39.0264 59.38 38.8747C59.6504 38.723 59.9472 38.6471 60.2704 38.6471C60.5969 38.6471 60.8937 38.723 61.1608 38.8747C61.4312 39.0264 61.644 39.2374 61.799 39.5078C61.9572 39.775 62.0364 40.0767 62.0364 40.4131C62.0364 40.7528 61.9572 41.0578 61.799 41.3283C61.644 41.5954 61.4312 41.8048 61.1608 41.9565C60.8904 42.1082 60.5936 42.184 60.2704 42.184ZM60.2704 41.5657C60.4782 41.5657 60.6612 41.5195 60.8195 41.4272C60.9778 41.3316 61.1015 41.1963 61.1905 41.0216C61.2795 40.8468 61.3241 40.644 61.3241 40.4131C61.3241 40.1823 61.2795 39.9811 61.1905 39.8096C61.1015 39.6348 60.9778 39.5013 60.8195 39.4089C60.6612 39.3166 60.4782 39.2704 60.2704 39.2704C60.0626 39.2704 59.878 39.3166 59.7164 39.4089C59.5581 39.5013 59.4344 39.6348 59.3454 39.8096C59.2563 39.9811 59.2118 40.1823 59.2118 40.4131C59.2118 40.644 59.2563 40.8468 59.3454 41.0216C59.4344 41.1963 59.5581 41.3316 59.7164 41.4272C59.878 41.5195 60.0626 41.5657 60.2704 41.5657ZM68.2256 42.1494H67.533L65.9649 39.7799V42.1494H65.2723V38.6916H65.9649L67.533 41.0661V38.6916H68.2256V42.1494ZM72.8228 42.184C72.5821 42.184 72.3644 42.1428 72.1699 42.0604C71.9786 41.9779 71.8269 41.8592 71.7148 41.7042C71.6026 41.5492 71.5449 41.3662 71.5416 41.1551H72.2836C72.2935 41.2969 72.343 41.409 72.432 41.4915C72.5244 41.5739 72.6497 41.6152 72.808 41.6152C72.9696 41.6152 73.0966 41.5772 73.1889 41.5014C73.2812 41.4222 73.3274 41.32 73.3274 41.1947C73.3274 41.0925 73.2961 41.0084 73.2334 40.9424C73.1708 40.8764 73.0916 40.8253 72.996 40.7891C72.9036 40.7495 72.775 40.7066 72.6101 40.6604C72.3859 40.5945 72.2028 40.5302 72.061 40.4675C71.9225 40.4016 71.8022 40.3043 71.6999 40.1757C71.601 40.0437 71.5515 39.869 71.5515 39.6513C71.5515 39.4468 71.6026 39.2688 71.7049 39.1171C71.8071 38.9654 71.9506 38.8499 72.1352 38.7708C72.3199 38.6883 72.531 38.6471 72.7684 38.6471C73.1246 38.6471 73.4131 38.7345 73.6341 38.9093C73.8584 39.0808 73.982 39.3215 74.0051 39.6315H73.2433C73.2367 39.5128 73.1856 39.4155 73.09 39.3397C72.9976 39.2605 72.8739 39.2209 72.7189 39.2209C72.5837 39.2209 72.4749 39.2556 72.3925 39.3248C72.3133 39.3941 72.2737 39.4947 72.2737 39.6266C72.2737 39.7189 72.3034 39.7964 72.3628 39.8591C72.4254 39.9184 72.5013 39.9679 72.5903 40.0075C72.6827 40.0437 72.8113 40.0866 72.9762 40.1361C73.2004 40.202 73.3835 40.268 73.5253 40.334C73.6671 40.3999 73.7891 40.4988 73.8913 40.6308C73.9936 40.7627 74.0447 40.9358 74.0447 41.1502C74.0447 41.3348 73.9969 41.5063 73.9012 41.6646C73.8056 41.8229 73.6654 41.9499 73.4807 42.0455C73.2961 42.1379 73.0768 42.184 72.8228 42.184ZM79.7155 38.6966V39.2556H78.7954V42.1494H78.1029V39.2556H77.1828V38.6966H79.7155ZM84.7224 42.1494L83.9606 40.8039H83.6341V42.1494H82.9415V38.6966H84.2376C84.5047 38.6966 84.7323 38.7444 84.9202 38.84C85.1082 38.9324 85.2484 39.0593 85.3407 39.2209C85.4363 39.3792 85.4842 39.5573 85.4842 39.7552C85.4842 39.9827 85.4182 40.1889 85.2863 40.3735C85.1544 40.5549 84.9582 40.6802 84.6976 40.7495L85.5237 42.1494H84.7224ZM83.6341 40.2845H84.2129C84.4008 40.2845 84.541 40.24 84.6333 40.1509C84.7257 40.0586 84.7718 39.9316 84.7718 39.77C84.7718 39.6117 84.7257 39.4897 84.6333 39.404C84.541 39.3149 84.4008 39.2704 84.2129 39.2704H83.6341V40.2845ZM89.5139 38.6966V40.8336C89.5139 41.0677 89.5749 41.2475 89.6969 41.3728C89.819 41.4948 89.9905 41.5558 90.2114 41.5558C90.4357 41.5558 90.6088 41.4948 90.7308 41.3728C90.8528 41.2475 90.9138 41.0677 90.9138 40.8336V38.6966H91.6113V40.8286C91.6113 41.1221 91.547 41.3711 91.4184 41.5756C91.2931 41.7768 91.1233 41.9285 90.9089 42.0307C90.6978 42.1329 90.462 42.184 90.2015 42.184C89.9443 42.184 89.7101 42.1329 89.4991 42.0307C89.2913 41.9285 89.1264 41.7768 89.0044 41.5756C88.8824 41.3711 88.8214 41.1221 88.8214 40.8286V38.6966H89.5139ZM94.833 40.418C94.833 40.0784 94.9088 39.775 95.0605 39.5078C95.2155 39.2374 95.425 39.028 95.6888 38.8796C95.9559 38.7279 96.2544 38.6521 96.5841 38.6521C96.97 38.6521 97.308 38.751 97.5982 38.9489C97.8884 39.1467 98.0913 39.4205 98.2067 39.77H97.4103C97.3311 39.6051 97.219 39.4815 97.0739 39.399C96.9321 39.3166 96.7672 39.2753 96.5792 39.2753C96.378 39.2753 96.1983 39.3232 96.04 39.4188C95.885 39.5111 95.763 39.6431 95.6739 39.8145C95.5882 39.986 95.5453 40.1872 95.5453 40.418C95.5453 40.6456 95.5882 40.8468 95.6739 41.0216C95.763 41.193 95.885 41.3266 96.04 41.4222C96.1983 41.5146 96.378 41.5608 96.5792 41.5608C96.7672 41.5608 96.9321 41.5195 97.0739 41.4371C97.219 41.3513 97.3311 41.226 97.4103 41.0611H98.2067C98.0913 41.414 97.8884 41.6894 97.5982 41.8872C97.3113 42.0818 96.9733 42.1791 96.5841 42.1791C96.2544 42.1791 95.9559 42.1049 95.6888 41.9565C95.425 41.8048 95.2155 41.5954 95.0605 41.3283C94.9088 41.0611 94.833 40.7577 94.833 40.418ZM103.869 38.6966V39.2556H102.949V42.1494H102.256V39.2556H101.336V38.6966H103.869ZM107.787 38.6966V42.1494H107.095V38.6966H107.787ZM112.795 42.184C112.472 42.184 112.175 42.1082 111.904 41.9565C111.634 41.8048 111.42 41.5954 111.261 41.3283C111.103 41.0578 111.024 40.7528 111.024 40.4131C111.024 40.0767 111.103 39.775 111.261 39.5078C111.42 39.2374 111.634 39.0264 111.904 38.8747C112.175 38.723 112.472 38.6471 112.795 38.6471C113.121 38.6471 113.418 38.723 113.685 38.8747C113.956 39.0264 114.168 39.2374 114.323 39.5078C114.482 39.775 114.561 40.0767 114.561 40.4131C114.561 40.7528 114.482 41.0578 114.323 41.3283C114.168 41.5954 113.956 41.8048 113.685 41.9565C113.415 42.1082 113.118 42.184 112.795 42.184ZM112.795 41.5657C113.003 41.5657 113.186 41.5195 113.344 41.4272C113.502 41.3316 113.626 41.1963 113.715 41.0216C113.804 40.8468 113.849 40.644 113.849 40.4131C113.849 40.1823 113.804 39.9811 113.715 39.8096C113.626 39.6348 113.502 39.5013 113.344 39.4089C113.186 39.3166 113.003 39.2704 112.795 39.2704C112.587 39.2704 112.402 39.3166 112.241 39.4089C112.083 39.5013 111.959 39.6348 111.87 39.8096C111.781 39.9811 111.736 40.1823 111.736 40.4131C111.736 40.644 111.781 40.8468 111.87 41.0216C111.959 41.1963 112.083 41.3316 112.241 41.4272C112.402 41.5195 112.587 41.5657 112.795 41.5657ZM120.75 42.1494H120.057L118.489 39.7799V42.1494H117.797V38.6916H118.489L120.057 41.0661V38.6916H120.75V42.1494ZM130.711 42.1494L130.335 41.7784C130.015 42.0653 129.624 42.2088 129.163 42.2088C128.909 42.2088 128.684 42.1659 128.49 42.0802C128.299 41.9911 128.15 41.8674 128.045 41.7092C127.939 41.5476 127.886 41.3612 127.886 41.1502C127.886 40.9226 127.951 40.7182 128.079 40.5368C128.208 40.3554 128.398 40.2086 128.648 40.0965C128.559 39.9877 128.495 39.8838 128.455 39.7849C128.416 39.6826 128.396 39.5738 128.396 39.4584C128.396 39.3001 128.437 39.1583 128.52 39.033C128.602 38.9043 128.719 38.8038 128.871 38.7312C129.026 38.6587 129.206 38.6224 129.41 38.6224C129.618 38.6224 129.796 38.662 129.944 38.7411C130.093 38.8202 130.203 38.9258 130.276 39.0577C130.348 39.1896 130.38 39.3364 130.37 39.498H129.697C129.7 39.3891 129.674 39.3067 129.618 39.2506C129.562 39.1913 129.486 39.1616 129.39 39.1616C129.298 39.1616 129.22 39.1896 129.158 39.2457C129.098 39.2984 129.069 39.3677 129.069 39.4534C129.069 39.5359 129.093 39.6183 129.143 39.7008C129.192 39.7799 129.273 39.8789 129.385 39.9976L130.256 40.8583C130.262 40.8517 130.267 40.8451 130.271 40.8385C130.274 40.8319 130.277 40.8253 130.281 40.8187L130.563 40.3488H131.285L130.939 40.9572C130.873 41.0859 130.802 41.2079 130.726 41.3233L131.562 42.1494H130.711ZM129.182 41.635C129.453 41.635 129.692 41.5393 129.9 41.348L129.049 40.5071C128.729 40.6489 128.569 40.8501 128.569 41.1106C128.569 41.259 128.625 41.3843 128.737 41.4865C128.849 41.5855 128.998 41.635 129.182 41.635ZM139.217 38.6966V42.1494H138.525V38.6966H139.217ZM145.576 42.1494H144.883L143.315 39.7799V42.1494H142.622V38.6916H143.315L144.883 41.0661V38.6916H145.576V42.1494ZM151.33 38.6966V39.2556H150.41V42.1494H149.718V39.2556H148.798V38.6966H151.33ZM155.249 39.2556V40.1212H156.411V40.6703H155.249V41.5855H156.56V42.1494H154.556V38.6916H156.56V39.2556H155.249ZM161.691 42.1494L160.929 40.8039H160.602V42.1494H159.91V38.6966H161.206C161.473 38.6966 161.701 38.7444 161.889 38.84C162.077 38.9324 162.217 39.0593 162.309 39.2209C162.405 39.3792 162.453 39.5573 162.453 39.7552C162.453 39.9827 162.387 40.1889 162.255 40.3735C162.123 40.5549 161.927 40.6802 161.666 40.7495L162.492 42.1494H161.691ZM160.602 40.2845H161.181C161.369 40.2845 161.509 40.24 161.602 40.1509C161.694 40.0586 161.74 39.9316 161.74 39.77C161.74 39.6117 161.694 39.4897 161.602 39.404C161.509 39.3149 161.369 39.2704 161.181 39.2704H160.602V40.2845ZM166.492 38.6966V42.1494H165.8V38.6966H166.492ZM171.5 42.184C171.177 42.184 170.88 42.1082 170.61 41.9565C170.339 41.8048 170.125 41.5954 169.966 41.3283C169.808 41.0578 169.729 40.7528 169.729 40.4131C169.729 40.0767 169.808 39.775 169.966 39.5078C170.125 39.2374 170.339 39.0264 170.61 38.8747C170.88 38.723 171.177 38.6471 171.5 38.6471C171.826 38.6471 172.123 38.723 172.39 38.8747C172.661 39.0264 172.873 39.2374 173.028 39.5078C173.187 39.775 173.266 40.0767 173.266 40.4131C173.266 40.7528 173.187 41.0578 173.028 41.3283C172.873 41.5954 172.661 41.8048 172.39 41.9565C172.12 42.1082 171.823 42.184 171.5 42.184ZM171.5 41.5657C171.708 41.5657 171.891 41.5195 172.049 41.4272C172.207 41.3316 172.331 41.1963 172.42 41.0216C172.509 40.8468 172.554 40.644 172.554 40.4131C172.554 40.1823 172.509 39.9811 172.42 39.8096C172.331 39.6348 172.207 39.5013 172.049 39.4089C171.891 39.3166 171.708 39.2704 171.5 39.2704C171.292 39.2704 171.107 39.3166 170.946 39.4089C170.788 39.5013 170.664 39.6348 170.575 39.8096C170.486 39.9811 170.441 40.1823 170.441 40.4131C170.441 40.644 170.486 40.8468 170.575 41.0216C170.664 41.1963 170.788 41.3316 170.946 41.4272C171.107 41.5195 171.292 41.5657 171.5 41.5657ZM178.283 42.1494L177.521 40.8039H177.194V42.1494H176.502V38.6966H177.798C178.065 38.6966 178.293 38.7444 178.481 38.84C178.669 38.9324 178.809 39.0593 178.901 39.2209C178.997 39.3792 179.044 39.5573 179.044 39.7552C179.044 39.9827 178.979 40.1889 178.847 40.3735C178.715 40.5549 178.518 40.6802 178.258 40.7495L179.084 42.1494H178.283ZM177.194 40.2845H177.773C177.961 40.2845 178.101 40.24 178.194 40.1509C178.286 40.0586 178.332 39.9316 178.332 39.77C178.332 39.6117 178.286 39.4897 178.194 39.404C178.101 39.3149 177.961 39.2704 177.773 39.2704H177.194V40.2845ZM183.584 42.184C183.343 42.184 183.125 42.1428 182.931 42.0604C182.74 41.9779 182.588 41.8592 182.476 41.7042C182.364 41.5492 182.306 41.3662 182.303 41.1551H183.045C183.054 41.2969 183.104 41.409 183.193 41.4915C183.285 41.5739 183.411 41.6152 183.569 41.6152C183.731 41.6152 183.857 41.5772 183.95 41.5014C184.042 41.4222 184.088 41.32 184.088 41.1947C184.088 41.0925 184.057 41.0084 183.994 40.9424C183.932 40.8764 183.853 40.8253 183.757 40.7891C183.665 40.7495 183.536 40.7066 183.371 40.6604C183.147 40.5945 182.964 40.5302 182.822 40.4675C182.683 40.4016 182.563 40.3043 182.461 40.1757C182.362 40.0437 182.312 39.869 182.312 39.6513C182.312 39.4468 182.364 39.2688 182.466 39.1171C182.568 38.9654 182.711 38.8499 182.896 38.7708C183.081 38.6883 183.292 38.6471 183.529 38.6471C183.886 38.6471 184.174 38.7345 184.395 38.9093C184.619 39.0808 184.743 39.3215 184.766 39.6315H184.004C183.998 39.5128 183.947 39.4155 183.851 39.3397C183.759 39.2605 183.635 39.2209 183.48 39.2209C183.345 39.2209 183.236 39.2556 183.153 39.3248C183.074 39.3941 183.035 39.4947 183.035 39.6266C183.035 39.7189 183.064 39.7964 183.124 39.8591C183.186 39.9184 183.262 39.9679 183.351 40.0075C183.444 40.0437 183.572 40.0866 183.737 40.1361C183.961 40.202 184.144 40.268 184.286 40.334C184.428 40.3999 184.55 40.4988 184.652 40.6308C184.754 40.7627 184.806 40.9358 184.806 41.1502C184.806 41.3348 184.758 41.5063 184.662 41.6646C184.567 41.8229 184.426 41.9499 184.242 42.0455C184.057 42.1379 183.838 42.184 183.584 42.184Z" fill="white"/>
</svg>
