<svg width="473" height="299" viewBox="0 0 473 299" fill="none" xmlns="http://www.w3.org/2000/svg">
<path d="M258.149 141.608H279.989C279.989 164.912 260.686 183.849 236.979 183.849C213.271 183.849 193.968 164.902 193.968 141.608V99.5889C193.968 97.7229 194.098 95.8674 194.325 94.0649C197.088 73.379 215.16 57.3477 236.979 57.3477C260.686 57.3477 279.989 76.3053 279.989 99.5889H258.149C258.149 89.5588 250.894 81.172 241.254 79.2211H241.232C240.088 78.9984 238.911 78.85 237.724 78.8182C237.475 78.797 237.227 78.797 236.968 78.797C225.287 78.797 215.787 88.1168 215.787 99.5995V141.618C215.787 153.09 225.276 162.421 236.968 162.421C248.66 162.421 258.149 153.101 258.149 141.618V141.608Z" fill="url(#paint0_linear_1518_1796)"/>
<path d="M236.978 26.9863C264.677 26.9863 290.183 43.0887 301.935 68.0068C303.744 71.7925 305.171 75.6942 306.257 79.6908C307.864 85.6171 308.662 91.7438 308.662 98.0076V160.234H286.989V98.0182C286.989 95.635 286.808 93.2307 286.467 90.8686C282.933 66.6992 261.664 48.4667 236.978 48.4667C209.408 48.4667 186.968 70.6852 186.968 98.0182V160.234H165.294V98.0182C165.294 97.4909 165.294 96.9742 165.316 96.4575V27.1761H186.755V47.3806C199.699 34.7686 217.434 26.9863 236.978 26.9863Z" fill="url(#paint1_linear_1518_1796)"/>
<path d="M178.008 21.7838C183.987 20.8144 188.048 15.1914 187.078 9.213C186.109 3.23459 180.486 -0.826428 174.507 0.143045C168.529 1.11252 164.468 6.73546 165.437 12.7139C166.407 18.6923 172.03 22.7533 178.008 21.7838Z" fill="url(#paint2_linear_1518_1796)"/>
<path d="M173.728 26.9863H165.294V160.234H173.728V26.9863Z" fill="#DB5D02"/>
<path d="M205.775 145.416C211.812 188.081 268.182 177.908 268.182 145.416L257.928 141.873L257.406 146.392C246.631 172.901 217.221 163.259 215.912 143.263V96.3017C224.355 68.7849 257.023 76.5922 257.832 99.7916L268.182 93.0344C255.745 52.7351 207.031 65.4646 205.775 94.1483V145.405V145.416Z" fill="url(#paint3_linear_1518_1796)"/>
<path d="M268.62 92.7676L258.062 99.5143H279.989L268.609 92.7676H268.62Z" fill="#486911"/>
<path d="M268.326 145.054L258.062 141.681H279.989L268.326 145.054Z" fill="#96BE32"/>
<path d="M296.856 91.7668V155.46C296.856 158.1 294.707 160.235 292.049 160.235C289.392 160.235 287.253 158.1 287.242 155.471L287.062 97.0255C287.062 95.0166 287.062 94.0175 286.925 92.8185C286.83 92.0087 286.597 90.694 286.406 89.8946C286.12 88.7167 285.877 88.0646 285.4 86.7499C266.618 35.2146 211.784 43.1342 195.924 70.6793C195.045 72.2149 193.447 73.2561 191.657 73.2561C188.259 73.2561 186.078 69.7012 187.856 66.8194C221.144 12.823 293.182 45.5638 296.856 91.7562V91.7668Z" fill="url(#paint4_linear_1518_1796)"/>
<path d="M296.856 150.114H286.736V160.234H296.856V150.114Z" fill="#D96103"/>
<path d="M30.4076 214.848H38.825V252.364H31.8317L13.477 229.588V252.364H5.05957V214.848H12.106L30.4076 237.624V214.848ZM56 245.4H76.034V252.364H47.5294V214.848H75.3538V221.812H56V229.956H73.09V236.714H56V245.4ZM91.2853 245.4H111.319V252.364H82.8147V214.848H110.639V221.812H91.2853V229.956H108.375V236.714H91.2853V245.4ZM118.1 252.364V214.848H126.624V245.292H145.085V252.364H118.1ZM177.66 252.364L174.397 244.328H157.307L154.044 252.364H145.319L161.728 214.848H170.146L186.609 252.364H177.66ZM160.038 237.732H171.719L165.884 223.371L160.049 237.732H160.038ZM207.525 253.003C196.11 253.003 187.587 244.913 187.587 233.606C187.587 222.299 196.11 214.209 207.578 214.209C213.944 214.209 219.258 216.57 222.723 220.859L217.249 226.003C214.773 223.111 211.68 221.606 207.992 221.606C201.105 221.606 196.206 226.534 196.206 233.606C196.206 240.678 201.095 245.606 207.992 245.606C211.67 245.606 214.773 244.1 217.249 241.154L222.723 246.299C219.248 250.642 213.944 253.003 207.525 253.003ZM253.725 214.848H262.249V252.364H253.725V236.985H236.997V252.364H228.473V214.848H236.997V229.642H253.725V214.848ZM298.459 252.364L295.196 244.328H278.106L274.843 252.364H266.117L282.527 214.848H290.945L307.408 252.364H298.459ZM280.837 237.732H292.507L286.672 223.371L280.837 237.732ZM336.571 214.848H344.989V252.364H337.995L319.641 229.588V252.364H311.223V214.848H318.27L336.571 237.624V214.848ZM353.693 252.364V214.848H370.422C382.463 214.848 390.721 222.245 390.721 233.606C390.721 244.967 382.463 252.364 370.422 252.364H353.693ZM362.217 245.237H369.997C377.309 245.237 382.091 240.786 382.091 233.606C382.091 226.425 377.309 221.974 369.997 221.974H362.217V245.237ZM429.748 252.364H420.597L413.497 241.913H405.664V252.364H397.141V214.848H413.072C422.903 214.848 429.057 220.046 429.057 228.462C429.057 234.093 426.272 238.219 421.479 240.31L429.737 252.364H429.748ZM420.448 228.462C420.448 224.335 417.823 221.92 412.615 221.92H405.675V235.003H412.615C417.823 235.003 420.448 232.534 420.448 228.462ZM463.322 252.364L460.059 244.328H442.969L439.706 252.364H430.98L447.39 214.848H455.808L472.271 252.364H463.322ZM445.711 237.732H457.391L451.557 223.371L445.722 237.732H445.711Z" fill="#F48120"/>
<path d="M0 271.557H472.271" stroke="#53751D" stroke-width="1.65"/>
<path d="M1.68604 291.813C1.68604 290.54 1.95071 289.401 2.49065 288.387C3.04117 287.372 3.78226 286.583 4.70333 286.019C5.64557 285.444 6.70427 285.163 7.86884 285.163C9.23456 285.163 10.4203 285.535 11.4472 286.279C12.4742 287.023 13.1835 288.048 13.5964 289.367H10.7803C10.505 288.747 10.1027 288.285 9.59452 287.969C9.09693 287.665 8.51464 287.507 7.84766 287.507C7.13834 287.507 6.50312 287.688 5.94201 288.048C5.39148 288.398 4.968 288.894 4.65039 289.536C4.34337 290.179 4.19515 290.934 4.19515 291.802C4.19515 292.67 4.34337 293.414 4.65039 294.068C4.968 294.711 5.39148 295.218 5.94201 295.579C6.50312 295.928 7.13834 296.097 7.84766 296.097C8.51464 296.097 9.09693 295.939 9.59452 295.635C10.1027 295.308 10.505 294.846 10.7803 294.226H13.5964C13.1941 295.556 12.4742 296.593 11.4472 297.326C10.4309 298.059 9.24515 298.419 7.86884 298.419C6.70427 298.419 5.65616 298.137 4.70333 297.585C3.77167 297.01 3.03058 296.232 2.49065 295.218C1.95071 294.215 1.68604 293.076 1.68604 291.791V291.813ZM30.9485 298.453C29.8051 298.453 28.757 298.171 27.8041 297.596C26.8513 297.021 26.089 296.244 25.5385 295.229C24.9774 294.215 24.7022 293.065 24.7022 291.791C24.7022 290.517 24.9774 289.39 25.5385 288.387C26.0996 287.372 26.8513 286.572 27.8041 286.008C28.757 285.433 29.8051 285.151 30.9485 285.151C32.0919 285.151 33.1506 285.433 34.0928 286.008C35.0456 286.583 35.7973 287.372 36.3478 288.387C36.909 289.39 37.1842 290.528 37.1842 291.791C37.1842 293.053 36.909 294.215 36.3478 295.229C35.7973 296.232 35.0456 297.021 34.0928 297.596C33.14 298.171 32.0919 298.453 30.9485 298.453ZM30.9485 296.131C31.679 296.131 32.3248 295.962 32.8859 295.612C33.447 295.252 33.8811 294.744 34.1987 294.091C34.5163 293.437 34.6751 292.67 34.6751 291.802C34.6751 290.934 34.5163 290.179 34.1987 289.536C33.8811 288.883 33.447 288.375 32.8859 288.026C32.3248 287.676 31.679 287.507 30.9485 287.507C30.218 287.507 29.5616 287.676 28.9899 288.026C28.4288 288.375 27.9947 288.871 27.6771 289.536C27.3595 290.179 27.2007 290.934 27.2007 291.802C27.2007 292.67 27.3595 293.437 27.6771 294.091C27.9947 294.744 28.4288 295.252 28.9899 295.612C29.5616 295.962 30.2074 296.131 30.9485 296.131ZM59.0252 298.329H56.5796L51.0426 289.424V298.329H48.597V285.332H51.0426L56.5796 294.26V285.332H59.0252V298.329ZM75.255 298.453C74.4081 298.453 73.6352 298.295 72.9471 297.991C72.2695 297.675 71.7402 297.236 71.3378 296.649C70.9461 296.063 70.7344 295.376 70.7238 294.587H73.3388C73.3705 295.116 73.5505 295.545 73.8575 295.849C74.1857 296.153 74.6304 296.311 75.1809 296.311C75.7314 296.311 76.1973 296.165 76.5255 295.883C76.8537 295.59 77.0125 295.195 77.0125 294.733C77.0125 294.35 76.9066 294.034 76.6843 293.786C76.4619 293.538 76.1867 293.347 75.8479 293.211C75.5197 293.065 75.0645 292.907 74.4822 292.727C73.6881 292.479 73.0424 292.242 72.5448 292.005C72.0578 291.757 71.6343 291.385 71.2743 290.912C70.9249 290.416 70.7556 289.762 70.7556 288.939C70.7556 288.172 70.9355 287.507 71.2955 286.932C71.6555 286.357 72.1636 285.929 72.82 285.636C73.4764 285.332 74.2175 285.174 75.0539 285.174C76.3137 285.174 77.3301 285.501 78.1135 286.155C78.9075 286.797 79.3416 287.699 79.4263 288.871H76.7372C76.716 288.42 76.536 288.06 76.1973 287.778C75.8691 287.485 75.435 287.327 74.8845 287.327C74.4081 287.327 74.0269 287.462 73.7305 287.721C73.4552 287.981 73.307 288.364 73.307 288.86C73.307 289.209 73.4129 289.503 73.6246 289.728C73.847 289.953 74.1116 290.134 74.4292 290.292C74.7574 290.427 75.2127 290.585 75.795 290.776C76.589 291.024 77.2348 291.272 77.7324 291.52C78.23 291.768 78.664 292.14 79.024 292.636C79.3839 293.132 79.5639 293.786 79.5639 294.587C79.5639 295.285 79.3945 295.928 79.0558 296.525C78.717 297.123 78.2194 297.596 77.5736 297.957C76.9172 298.307 76.1443 298.476 75.255 298.476V298.453ZM99.5945 285.343V287.44H96.3443V298.318H93.8987V287.44H90.6485V285.343H99.5945ZM117.264 298.329L114.575 293.268H113.421V298.329H110.976V285.354H115.549C116.491 285.354 117.296 285.535 117.963 285.895C118.63 286.245 119.117 286.718 119.445 287.327C119.784 287.924 119.953 288.589 119.953 289.333C119.953 290.19 119.72 290.968 119.255 291.656C118.789 292.332 118.101 292.805 117.18 293.065L120.091 298.329H117.264ZM113.421 291.317H115.464C116.131 291.317 116.618 291.148 116.947 290.81C117.275 290.461 117.434 289.987 117.434 289.379C117.434 288.77 117.275 288.33 116.947 288.003C116.618 287.665 116.121 287.496 115.464 287.496H113.421V291.306V291.317ZM134.182 285.343V293.369C134.182 294.248 134.394 294.925 134.828 295.398C135.262 295.86 135.866 296.086 136.638 296.086C137.411 296.086 138.046 295.86 138.47 295.398C138.904 294.925 139.116 294.248 139.116 293.369V285.343H141.583V293.358C141.583 294.463 141.36 295.398 140.905 296.165C140.46 296.92 139.867 297.495 139.105 297.878C138.364 298.261 137.528 298.453 136.607 298.453C135.686 298.453 134.87 298.261 134.129 297.878C133.399 297.495 132.816 296.92 132.382 296.165C131.948 295.398 131.737 294.463 131.737 293.358V285.343H134.182ZM152.964 291.813C152.964 290.54 153.228 289.401 153.768 288.387C154.319 287.372 155.049 286.583 155.991 286.019C156.934 285.444 157.992 285.163 159.146 285.163C160.512 285.163 161.698 285.535 162.725 286.279C163.752 287.023 164.461 288.048 164.874 289.367H162.058C161.783 288.747 161.38 288.285 160.872 287.969C160.374 287.665 159.792 287.507 159.125 287.507C158.416 287.507 157.781 287.688 157.22 288.048C156.669 288.398 156.246 288.894 155.928 289.536C155.621 290.179 155.473 290.934 155.473 291.802C155.473 292.67 155.621 293.414 155.928 294.068C156.246 294.711 156.669 295.218 157.22 295.579C157.781 295.928 158.416 296.097 159.125 296.097C159.792 296.097 160.374 295.939 160.872 295.635C161.38 295.308 161.783 294.846 162.058 294.226H164.874C164.461 295.556 163.752 296.593 162.725 297.326C161.708 298.059 160.523 298.419 159.146 298.419C157.982 298.419 156.934 298.137 155.991 297.585C155.06 297.01 154.319 296.232 153.768 295.218C153.228 294.215 152.964 293.076 152.964 291.791V291.813ZM184.862 285.343V287.44H181.612V298.318H179.166V287.44H175.916V285.343H184.862ZM198.689 285.343V298.318H196.243V285.343H198.689ZM216.369 298.453C215.226 298.453 214.178 298.171 213.225 297.596C212.272 297.021 211.51 296.244 210.948 295.229C210.387 294.215 210.112 293.065 210.112 291.791C210.112 290.517 210.387 289.39 210.948 288.387C211.51 287.372 212.261 286.572 213.225 286.008C214.178 285.433 215.226 285.151 216.369 285.151C217.512 285.151 218.571 285.433 219.513 286.008C220.466 286.583 221.218 287.372 221.768 288.387C222.329 289.39 222.605 290.528 222.605 291.791C222.605 293.053 222.329 294.215 221.768 295.229C221.218 296.232 220.466 297.021 219.513 297.596C218.561 298.171 217.512 298.453 216.369 298.453ZM216.369 296.131C217.1 296.131 217.745 295.962 218.306 295.612C218.868 295.252 219.302 294.744 219.619 294.091C219.937 293.437 220.085 292.67 220.085 291.802C220.085 290.934 219.926 290.179 219.619 289.536C219.302 288.883 218.868 288.375 218.306 288.026C217.745 287.676 217.1 287.507 216.369 287.507C215.639 287.507 214.982 287.676 214.41 288.026C213.849 288.375 213.415 288.871 213.098 289.536C212.78 290.179 212.621 290.934 212.621 291.802C212.621 292.67 212.78 293.437 213.098 294.091C213.415 294.744 213.849 295.252 214.41 295.612C214.982 295.962 215.628 296.131 216.369 296.131ZM244.456 298.329H242.011L236.474 289.424V298.329H234.028V285.332H236.474L242.011 294.26V285.332H244.456V298.329ZM279.616 298.329L278.292 296.931C277.16 298.013 275.783 298.543 274.153 298.543C273.253 298.543 272.469 298.385 271.781 298.059C271.104 297.72 270.585 297.258 270.214 296.661C269.844 296.052 269.653 295.353 269.653 294.564C269.653 293.707 269.876 292.941 270.331 292.253C270.786 291.577 271.453 291.024 272.342 290.596C272.025 290.19 271.802 289.796 271.665 289.424C271.527 289.04 271.453 288.635 271.453 288.195C271.453 287.597 271.601 287.068 271.887 286.594C272.184 286.109 272.586 285.737 273.126 285.456C273.676 285.185 274.312 285.05 275.032 285.05C275.751 285.05 276.397 285.196 276.916 285.501C277.435 285.794 277.827 286.2 278.091 286.696C278.356 287.192 278.462 287.744 278.419 288.353H276.048C276.059 287.947 275.963 287.631 275.773 287.417C275.571 287.192 275.307 287.079 274.968 287.079C274.629 287.079 274.365 287.18 274.153 287.395C273.941 287.586 273.835 287.857 273.835 288.172C273.835 288.488 273.92 288.792 274.1 289.108C274.28 289.401 274.566 289.773 274.957 290.224L278.028 293.459C278.028 293.459 278.07 293.414 278.081 293.38C278.091 293.358 278.102 293.335 278.112 293.301L279.108 291.532H281.659L280.441 293.82C280.209 294.305 279.954 294.767 279.69 295.195L282.644 298.307H279.637L279.616 298.329ZM274.227 296.39C275.18 296.39 276.027 296.029 276.757 295.308L273.751 292.152C272.618 292.681 272.057 293.437 272.057 294.417C272.057 294.97 272.258 295.443 272.649 295.827C273.041 296.199 273.571 296.39 274.216 296.39H274.227ZM309.651 285.343V298.318H307.205V285.343H309.651ZM332.095 298.329H329.65L324.113 289.424V298.329H321.667V285.332H324.113L329.65 294.26V285.332H332.095V298.329ZM352.412 285.343V287.44H349.162V298.318H346.716V287.44H343.466V285.343H352.412ZM366.238 287.451V290.709H370.346V292.772H366.238V296.21H370.865V298.329H363.793V285.332H370.865V287.451H366.238ZM388.99 298.329L386.301 293.268H385.147V298.329H382.701V285.354H387.275C388.217 285.354 389.022 285.535 389.689 285.895C390.356 286.245 390.843 286.718 391.171 287.327C391.51 287.924 391.679 288.589 391.679 289.333C391.679 290.19 391.446 290.968 390.98 291.656C390.514 292.332 389.826 292.805 388.905 293.065L391.827 298.329H388.99ZM385.147 291.317H387.19C387.857 291.317 388.344 291.148 388.672 290.81C389 290.461 389.159 289.987 389.159 289.379C389.159 288.77 389 288.33 388.672 288.003C388.344 287.665 387.846 287.496 387.19 287.496H385.147V291.306V291.317ZM405.94 285.343V298.318H403.494V285.343H405.94ZM423.609 298.453C422.466 298.453 421.418 298.171 420.465 297.596C419.512 297.021 418.75 296.244 418.199 295.229C417.638 294.215 417.363 293.065 417.363 291.791C417.363 290.517 417.638 289.39 418.199 288.387C418.761 287.372 419.512 286.572 420.465 286.008C421.418 285.433 422.466 285.151 423.609 285.151C424.753 285.151 425.811 285.433 426.754 286.008C427.707 286.583 428.458 287.372 429.009 288.387C429.57 289.39 429.845 290.528 429.845 291.791C429.845 293.053 429.57 294.215 429.009 295.229C428.458 296.232 427.707 297.021 426.754 297.596C425.801 298.171 424.753 298.453 423.609 298.453ZM423.609 296.131C424.34 296.131 424.986 295.962 425.547 295.612C426.108 295.252 426.542 294.744 426.86 294.091C427.177 293.437 427.336 292.67 427.336 291.802C427.336 290.934 427.177 290.179 426.86 289.536C426.542 288.883 426.108 288.375 425.547 288.026C424.986 287.676 424.34 287.507 423.609 287.507C422.879 287.507 422.222 287.676 421.651 288.026C421.09 288.375 420.656 288.871 420.338 289.536C420.02 290.179 419.862 290.934 419.862 291.802C419.862 292.67 420.02 293.437 420.338 294.091C420.656 294.744 421.09 295.252 421.651 295.612C422.222 295.962 422.868 296.131 423.609 296.131ZM447.557 298.329L444.868 293.268H443.714V298.329H441.268V285.354H445.842C446.784 285.354 447.589 285.535 448.256 285.895C448.923 286.245 449.41 286.718 449.738 287.327C450.077 287.924 450.246 288.589 450.246 289.333C450.246 290.19 450.013 290.968 449.547 291.656C449.082 292.332 448.393 292.805 447.472 293.065L450.394 298.329H447.557ZM443.714 291.317H445.757C446.424 291.317 446.911 291.148 447.24 290.81C447.568 290.461 447.727 289.987 447.727 289.379C447.727 288.77 447.568 288.33 447.24 288.003C446.911 287.665 446.424 287.496 445.757 287.496H443.714V291.306V291.317ZM466.275 298.453C465.428 298.453 464.655 298.295 463.967 297.991C463.289 297.675 462.76 297.236 462.358 296.649C461.966 296.063 461.754 295.376 461.744 294.587H464.359C464.39 295.116 464.57 295.545 464.888 295.849C465.216 296.153 465.661 296.311 466.211 296.311C466.762 296.311 467.228 296.165 467.556 295.883C467.884 295.59 468.043 295.195 468.043 294.733C468.043 294.35 467.926 294.034 467.715 293.786C467.492 293.538 467.217 293.347 466.878 293.211C466.55 293.065 466.095 292.907 465.513 292.727C464.719 292.479 464.073 292.242 463.575 292.005C463.088 291.757 462.665 291.385 462.305 290.912C461.955 290.416 461.786 289.762 461.786 288.939C461.786 288.172 461.966 287.507 462.326 286.932C462.686 286.357 463.194 285.929 463.84 285.636C464.496 285.332 465.237 285.174 466.074 285.174C467.334 285.174 468.35 285.501 469.133 286.155C469.927 286.797 470.362 287.699 470.446 288.871H467.757C467.736 288.42 467.556 288.06 467.217 287.778C466.889 287.485 466.455 287.327 465.904 287.327C465.428 287.327 465.047 287.462 464.75 287.721C464.475 287.981 464.327 288.364 464.327 288.86C464.327 289.209 464.433 289.503 464.645 289.728C464.867 289.953 465.132 290.134 465.449 290.292C465.777 290.427 466.233 290.585 466.815 290.776C467.609 291.024 468.255 291.272 468.752 291.52C469.25 291.768 469.684 292.14 470.044 292.636C470.404 293.132 470.584 293.786 470.584 294.587C470.584 295.285 470.414 295.928 470.076 296.525C469.737 297.123 469.239 297.596 468.594 297.957C467.937 298.307 467.164 298.476 466.275 298.476V298.453Z" fill="#53751D"/>
<defs>
<linearGradient id="paint0_linear_1518_1796" x1="193.893" y1="118.833" x2="279.908" y2="122.493" gradientUnits="userSpaceOnUse">
<stop stop-color="#375709"/>
<stop offset="0.28" stop-color="#6C9122"/>
<stop offset="0.83" stop-color="#ABD33B"/>
<stop offset="1" stop-color="#517121"/>
</linearGradient>
<linearGradient id="paint1_linear_1518_1796" x1="185.158" y1="50.9659" x2="283.217" y2="178.267" gradientUnits="userSpaceOnUse">
<stop stop-color="#F3800B"/>
<stop offset="0.31" stop-color="#FEAB1E"/>
<stop offset="0.66" stop-color="#FD9915"/>
<stop offset="1" stop-color="#FB7707"/>
</linearGradient>
<linearGradient id="paint2_linear_1518_1796" x1="167.581" y1="14.125" x2="186.044" y2="7.41409" gradientUnits="userSpaceOnUse">
<stop stop-color="#476812"/>
<stop offset="0.31" stop-color="#668924"/>
<stop offset="0.75" stop-color="#9BDB36"/>
</linearGradient>
<linearGradient id="paint3_linear_1518_1796" x1="271.11" y1="120.689" x2="199.195" y2="120.507" gradientUnits="userSpaceOnUse">
<stop stop-color="#375709"/>
<stop offset="0.28" stop-color="#6C9122"/>
<stop offset="0.83" stop-color="#ABD33B"/>
<stop offset="1" stop-color="#517121"/>
</linearGradient>
<linearGradient id="paint4_linear_1518_1796" x1="217.999" y1="46.4788" x2="308.048" y2="148.998" gradientUnits="userSpaceOnUse">
<stop stop-color="#F78F11"/>
<stop offset="0.31" stop-color="#E46F09"/>
<stop offset="0.66" stop-color="#B14602"/>
<stop offset="1" stop-color="#E26704"/>
</linearGradient>
</defs>
</svg>
